<?xml version="1.0" encoding="UTF-8" standalone="no"?>
<!-- Created with Inkscape (http://www.inkscape.org/) -->

<svg
   xmlns:dc="http://purl.org/dc/elements/1.1/"
   xmlns:cc="http://creativecommons.org/ns#"
   xmlns:rdf="http://www.w3.org/1999/02/22-rdf-syntax-ns#"
   xmlns:svg="http://www.w3.org/2000/svg"
   xmlns="http://www.w3.org/2000/svg"
   xmlns:sodipodi="http://sodipodi.sourceforge.net/DTD/sodipodi-0.dtd"
   xmlns:inkscape="http://www.inkscape.org/namespaces/inkscape"
   width="512"
   height="512"
   viewBox="0 0 135.46665 135.46667"
   version="1.1"
   id="svg8"
   inkscape:version="0.92.4 (5da689c313, 2019-01-14)"
   sodipodi:docname="choreWheelGoogleIcon.svg">
  <defs
     id="defs2">
    <path
       style="fill:none;stroke:#000000;stroke-width:0.26458332px;stroke-linecap:butt;stroke-linejoin:miter;stroke-opacity:0"
       d="m -38.265364,157.65859 c 2.031001,1.6796 1.655644,3.30323 -0.09922,4.89479 v 0"
       id="path1105"
       inkscape:connector-curvature="0"
       sodipodi:nodetypes="ccc" />
    <path
       style="fill:none;stroke:#000000;stroke-width:0.26458332px;stroke-linecap:butt;stroke-linejoin:miter;stroke-opacity:0"
       d="m -38.265364,157.65859 c 2.031001,1.6796 1.655644,3.30323 -0.09922,4.89479 v 0"
       id="path4703"
       inkscape:connector-curvature="0"
       sodipodi:nodetypes="ccc" />
  </defs>
  <sodipodi:namedview
     id="base"
     pagecolor="#ffffff"
     bordercolor="#666666"
     borderopacity="1.0"
     inkscape:pageopacity="0.0"
     inkscape:pageshadow="2"
     inkscape:zoom="0.98994949"
     inkscape:cx="212.14287"
     inkscape:cy="222.31522"
     inkscape:document-units="mm"
     inkscape:current-layer="layer2"
     showgrid="false"
     inkscape:window-width="1920"
     inkscape:window-height="974"
     inkscape:window-x="-11"
     inkscape:window-y="-11"
     inkscape:window-maximized="1"
     fit-margin-top="0"
     fit-margin-left="0"
     fit-margin-right="0"
     fit-margin-bottom="0"
     units="px" />
  <metadata
     id="metadata5">
    <rdf:RDF>
      <cc:Work
         rdf:about="">
        <dc:format>image/svg+xml</dc:format>
        <dc:type
           rdf:resource="http://purl.org/dc/dcmitype/StillImage" />
        <dc:title></dc:title>
      </cc:Work>
    </rdf:RDF>
  </metadata>
  <g
     inkscape:label="Layer 1"
     inkscape:groupmode="layer"
     id="layer1"
     transform="translate(-76.540175,-137.19947)" />
  <g
     inkscape:groupmode="layer"
     id="layer2"
     inkscape:label="top"
     transform="translate(3.6073605e-6,-0.80228105)">
    <rect
       style="fill:#cccccc;fill-rule:evenodd;stroke-width:0.26372811"
       id="rect669"
       width="135.46666"
       height="135.46666"
       x="-3.1555392e-06"
       y="0.80227977"
       rx="0.036279548"
       ry="1.687085" />
    <g
       id="g667"
       transform="matrix(0.85333333,0,0,0.8533397,-48.747022,-114.0927)">
      <path
         d="M 193.18176,195.53406 A 59.53125,59.527252 0 0 1 152.87623,269.44339 59.53125,59.527252 0 0 1 78.961473,229.1414 59.53125,59.527252 0 0 1 119.26534,155.23115 59.53125,59.527252 0 0 1 193.181,195.53148 l -57.10957,16.8056 z"
         sodipodi:end="5.9969759"
         sodipodi:start="5.9970211"
         sodipodi:ry="59.527252"
         sodipodi:rx="59.53125"
         sodipodi:cy="212.33708"
         sodipodi:cx="136.07143"
         sodipodi:type="arc"
         id="path28"
         style="fill:#000000;fill-rule:evenodd;stroke-width:0.30356681" />
      <path
         style="fill:#666666;fill-rule:evenodd;stroke-width:0.29445323"
         id="path33"
         sodipodi:type="arc"
         sodipodi:cx="136.07143"
         sodipodi:cy="212.18779"
         sodipodi:rx="57.748493"
         sodipodi:ry="57.735672"
         sodipodi:start="5.9970211"
         sodipodi:end="5.9969759"
         d="m 191.4715,195.89048 a 57.748493,57.735672 0 0 1 -39.09852,71.6849 57.748493,57.735672 0 0 1 -71.70126,-39.08903 57.748493,57.735672 0 0 1 39.0969,-71.68578 57.748493,57.735672 0 0 1 71.70214,39.08741 l -55.39933,16.29981 z" />
      <path
         inkscape:connector-curvature="0"
         id="path1077"
         d="m 130.9021,269.63776 c -20.44375,-2.07797 -37.807601,-14.07246 -46.604097,-32.19288 -4.019736,-8.2805 -5.826268,-16.12449 -5.835541,-25.33801 -0.01416,-14.07509 5.060455,-27.46218 14.463915,-38.15648 8.905653,-10.12817 21.069893,-16.66165 35.160673,-18.88502 3.39792,-0.53615 12.39634,-0.53594 15.95193,3e-4 21.0068,3.16863 38.20366,16.79023 45.75846,36.24519 5.90035,15.19445 5.10747,32.07943 -2.19126,46.66447 -2.85948,5.71411 -5.8486,9.84906 -10.61471,14.68373 -4.93849,5.00953 -9.08338,8.02442 -15.22813,11.07653 -5.63032,2.7966 -11.17905,4.54848 -17.41076,5.49704 -3.23881,0.49299 -10.44905,0.71012 -13.45048,0.40505 z m 11.91896,-1.79766 c 9.38766,-1.24606 18.54061,-5.25101 26.72388,-11.69325 2.91806,-2.29723 7.27096,-6.86992 9.99204,-10.49656 9.63656,-12.84357 13.42161,-27.25245 10.88915,-41.45273 -1.29595,-7.26677 -4.38901,-14.89888 -8.78976,-21.68868 -2.76233,-4.26194 -4.14798,-6.0213 -7.03711,-8.93505 -7.45532,-7.51884 -16.10828,-12.67162 -25.51361,-15.19318 -16.82936,-4.51193 -33.87629,-0.52631 -48.41893,11.32048 -2.64088,2.15133 -6.928,6.41382 -8.804623,8.75405 -5.779383,7.20713 -9.431074,16.40791 -10.615868,26.74767 -0.415065,3.62229 -0.294513,11.66438 0.225363,15.03418 1.053765,6.83041 3.446088,13.99671 6.519818,19.53038 2.555154,4.60007 4.787151,7.59537 8.117716,10.89381 9.393614,9.30303 21.595544,15.47396 33.958884,17.17415 2.93821,0.40406 9.72559,0.40658 12.75305,0.005 z"
         style="fill:#ececec;stroke:none;stroke-width:0.20982648" />
      <path
         inkscape:connector-curvature="0"
         id="path1079"
         d="m 131.31915,271.62529 c -15.45553,-1.61756 -28.11917,-7.72202 -38.400779,-18.51096 -8.792608,-9.22646 -14.329633,-21.11942 -15.945699,-34.24971 -0.338146,-2.74738 -0.340388,-10.39599 -0.0038,-13.09064 1.739835,-13.93025 7.739608,-26.22499 17.47036,-35.80026 16.026398,-15.77034 39.698418,-21.16006 60.859968,-13.8568 18.50079,6.38499 32.61537,21.2802 37.95086,40.04978 1.66804,5.86798 2.29248,11.09528 2.12807,17.81459 -0.15452,6.31509 -0.90484,10.82304 -2.74565,16.49599 -4.91555,15.14864 -15.33557,27.45591 -29.30519,34.6129 -6.2426,3.19825 -12.10963,5.0741 -19.25888,6.15758 -2.03109,0.30782 -10.90463,0.57058 -12.74922,0.37753 z m 12.09506,-2.09177 c 7.24025,-0.96103 14.7363,-3.43352 20.85479,-6.87874 5.16214,-2.90671 9.21129,-6.05399 13.45341,-10.45693 13.72004,-14.24013 19.16964,-34.22589 14.57007,-53.43392 -2.4354,-10.17038 -7.82558,-19.8871 -15.08566,-27.19451 -16.44643,-16.55363 -40.95038,-21.66635 -62.56942,-13.05503 -10.98075,4.37385 -20.162573,11.84273 -26.691218,21.71174 -4.936664,7.4625 -7.78723,14.94273 -9.212776,24.17545 -0.509971,3.30288 -0.511796,12.13612 -0.0032,15.47761 2.609134,17.14195 11.405661,31.13428 25.481094,40.53187 2.78736,1.86101 8.50339,4.78408 11.64804,5.95659 4.52818,1.68836 10.64725,3.05702 15.56407,3.48123 2.89439,0.24973 8.9293,0.091 11.9908,-0.31536 z"
         style="fill:#051806;fill-opacity:1;stroke:#000000;stroke-width:0.20982648;stroke-opacity:1" />
      <path
         inkscape:connector-curvature="0"
         id="path885"
         d="m 81.024979,212.1343 110.130681,0.007 v 0"
         style="fill:#ff0000;stroke:#040000;stroke-width:0.29732043px;stroke-linecap:butt;stroke-linejoin:miter;stroke-opacity:1" />
      <path
         inkscape:connector-curvature="0"
         id="path887"
         d="m 135.82291,156.39207 0.008,111.42186"
         style="fill:none;stroke:#040000;stroke-width:0.29732043px;stroke-linecap:butt;stroke-linejoin:miter;stroke-opacity:1" />
      <path
         inkscape:connector-curvature="0"
         id="path889"
         d="m 121.45658,158.4052 28.79669,107.48627"
         style="fill:none;stroke:#040000;stroke-width:0.29732043px;stroke-linecap:butt;stroke-linejoin:miter;stroke-opacity:1" />
      <path
         inkscape:connector-curvature="0"
         id="path891"
         d="M 150.16153,158.49027 121.49682,265.53026"
         style="fill:none;stroke:#040000;stroke-width:0.29732043px;stroke-linecap:butt;stroke-linejoin:miter;stroke-opacity:1" />
      <path
         inkscape:connector-curvature="0"
         id="path893"
         d="m 108.42195,164.0926 55.02649,95.90447"
         style="fill:none;stroke:#040000;stroke-width:0.29732043px;stroke-linecap:butt;stroke-linejoin:miter;stroke-opacity:1" />
      <path
         inkscape:connector-curvature="0"
         id="path895"
         d="M 163.31552,164.36 108.8348,259.97868"
         style="fill:none;stroke:#040000;stroke-width:0.29732043px;stroke-linecap:butt;stroke-linejoin:miter;stroke-opacity:1" />
      <path
         inkscape:connector-curvature="0"
         id="path897"
         d="m 97.009102,172.85328 77.430808,78.32205"
         style="fill:none;stroke:#040000;stroke-width:0.29732043px;stroke-linecap:butt;stroke-linejoin:miter;stroke-opacity:1" />
      <path
         inkscape:connector-curvature="0"
         id="path899"
         d="M 163.31552,164.36 108.8348,259.97868"
         style="fill:none;stroke:#040000;stroke-width:0.29732043px;stroke-linecap:butt;stroke-linejoin:miter;stroke-opacity:1" />
      <path
         inkscape:connector-curvature="0"
         id="path901"
         d="M 174.27195,173.01705 97.171785,251.24576"
         style="fill:none;stroke:#040000;stroke-width:0.29732043px;stroke-linecap:butt;stroke-linejoin:miter;stroke-opacity:1" />
      <path
         inkscape:connector-curvature="0"
         id="path905"
         d="M 183.02876,184.53291 88.310073,239.76128"
         style="fill:none;stroke:#040000;stroke-width:0.29732043px;stroke-linecap:butt;stroke-linejoin:miter;stroke-opacity:1" />
      <path
         inkscape:connector-curvature="0"
         id="path907"
         d="m 97.009102,172.85328 77.430808,78.32205"
         style="fill:none;stroke:#040000;stroke-width:0.29732043px;stroke-linecap:butt;stroke-linejoin:miter;stroke-opacity:1" />
      <path
         inkscape:connector-curvature="0"
         id="path909"
         d="m 87.897897,184.21509 95.348523,55.53283"
         style="fill:none;stroke:#040000;stroke-width:0.29732043px;stroke-linecap:butt;stroke-linejoin:miter;stroke-opacity:1" />
      <path
         inkscape:connector-curvature="0"
         id="path911"
         d="M 188.88891,197.69579 83.106983,227.01232"
         style="fill:none;stroke:#040000;stroke-width:0.29732043px;stroke-linecap:butt;stroke-linejoin:miter;stroke-opacity:1" />
      <path
         inkscape:connector-curvature="0"
         id="path913"
         d="M 82.638629,197.67469 189.10297,226.64034"
         style="fill:none;stroke:#040000;stroke-width:0.29732043px;stroke-linecap:butt;stroke-linejoin:miter;stroke-opacity:1" />
      <g
         style="stroke:#040000;stroke-opacity:1"
         transform="matrix(1.117099,0,0,1.130402,54.8277,34.279257)"
         id="g51">
        <path
           style="fill:none;stroke:#040000;stroke-width:0.26458332px;stroke-linecap:butt;stroke-linejoin:miter;stroke-opacity:1"
           d="m 34.517859,125.89611 c -13.397352,14.55346 -16.064418,42.61663 0,62.58116 v 0 c 14.811697,16.56139 43.74793,27.75282 69.554431,6.30033 2.11017,-1.75414 3.96712,-4.00531 6.02939,-6.20683 16.97222,-20.70737 14.91295,-43.65647 -0.28063,-62.76816"
           id="path45"
           inkscape:connector-curvature="0"
           sodipodi:nodetypes="cccscc" />
        <path
           style="fill:none;stroke:#040000;stroke-width:0.26458332px;stroke-linecap:butt;stroke-linejoin:miter;stroke-opacity:1"
           d="m 34.517859,125.89611 c 22.696092,-24.87678 55.451157,-22.72399 75.303191,-0.0935"
           id="path47"
           inkscape:connector-curvature="0"
           sodipodi:nodetypes="cc" />
      </g>
      <path
         inkscape:connector-curvature="0"
         id="path968"
         d="m 128.65884,184.55249 -6.95844,-25.98497 0.41107,-0.12837 c 0.84022,-0.26237 3.63885,-0.8839 5.09971,-1.13256 2.08027,-0.35408 4.40581,-0.58789 6.6035,-0.66389 l 1.85484,-0.0641 v 26.98075 c 0,14.83942 -0.0118,26.98017 -0.0261,26.97946 -0.0144,-6e-4 -3.15742,-11.69454 -6.98457,-25.98627 z"
         style="fill:#ff0000;stroke:#ff0000;stroke-width:0.10511865;stroke-opacity:1" />
      <path
         inkscape:connector-curvature="0"
         id="path970"
         d="m 136.05222,183.44349 -0.0107,-26.83221 0.86211,3e-4 c 2.34758,0.001 5.9998,0.42805 9.06523,1.05955 1.75874,0.36231 3.8421,0.8792 3.91977,0.97251 0.0235,0.0282 -13.51925,50.65795 -13.72594,51.3147 -0.0641,0.20358 -0.10366,-9.29576 -0.1105,-26.51498 z"
         style="fill:#00dfff;fill-opacity:1;stroke:#00dfff;stroke-width:0.10511865;stroke-opacity:1" />
      <path
         inkscape:connector-curvature="0"
         id="path972"
         d="m 136.27373,211.12164 c 0.12406,-0.5083 14.01087,-52.34536 14.02946,-52.36952 0.0446,-0.0579 3.73498,1.24335 5.0183,1.76954 3.07608,1.26129 7.73725,3.7183 7.62352,4.01855 -0.10298,0.27188 -26.4976,46.57464 -26.61375,46.68718 -0.0748,0.0725 -0.0929,0.0392 -0.0575,-0.10575 z"
         style="fill:#00ff00;stroke:#00ff00;stroke-width:0.10511865;stroke-opacity:1" />
      <path
         inkscape:connector-curvature="0"
         id="path974"
         d="m 137.71353,209.76946 c 0,-0.046 25.56691,-44.97933 25.666,-45.10751 0.0504,-0.0651 3.25677,2.12613 4.58625,3.13423 1.70878,1.29572 3.67291,2.97148 4.94565,4.21954 l 1.05909,1.03855 -18.1285,18.38581 c -9.97067,10.11219 -18.12849,18.36041 -18.12849,18.32938 z"
         style="fill:#ff6600;stroke:#ff6600;stroke-width:0.10511865;stroke-opacity:1" />
      <path
         inkscape:connector-curvature="0"
         id="path976"
         d="m 155.68723,192.15477 18.54845,-18.84329 1.50558,1.56328 c 0.98736,1.02519 1.98252,2.20804 2.89122,3.4365 1.30151,1.75951 3.23097,4.62027 3.83588,5.68738 l 0.26974,0.47584 -22.67255,13.21784 c -12.46991,7.26981 -22.72975,13.23762 -22.79966,13.26179 -0.0699,0.0242 8.21969,-8.43553 18.42134,-18.79934 z"
         style="fill:#ffd42a;stroke:#ffd42a;stroke-width:0.10511865;stroke-opacity:1" />
      <path
         inkscape:connector-curvature="0"
         id="path978"
         d="m 136.56404,211.88672 c 0.0287,-0.0321 10.46611,-6.13005 23.19416,-13.551 18.50532,-10.78932 23.16776,-13.46599 23.27099,-13.3597 0.27844,0.28669 2.25998,4.10977 3.04678,5.87829 1.32311,2.97398 2.62529,6.52388 2.45285,6.68672 -0.0829,0.0783 -51.00176,14.20795 -51.65751,14.33462 -0.19773,0.0382 -0.336,0.0432 -0.30727,0.0111 z"
         style="fill:#0058d4;fill-opacity:1;stroke:#0058d4;stroke-width:0.10511865;stroke-opacity:1" />
      <path
         inkscape:connector-curvature="0"
         id="path980"
         d="m 138.75851,211.80616 c 0.51839,-0.18226 49.97569,-13.8589 50.00519,-13.82814 0.0166,0.0173 0.22154,0.74529 0.45534,1.61767 0.91607,3.41817 1.5371,7.38272 1.65228,10.54783 l 0.0644,1.77119 -26.21925,-0.008 c -14.97868,-0.005 -26.10726,-0.0477 -25.95801,-0.10021 z"
         style="fill:#e62ce5;fill-opacity:1;stroke:#e62ce5;stroke-width:0.10511865;stroke-opacity:1" />
      <path
         inkscape:connector-curvature="0"
         id="path982"
         d="m 121.81908,187.03986 -13.1245,-22.86798 0.58508,-0.34929 c 1.25362,-0.74843 5.37015,-2.75739 6.95947,-3.39638 0.91959,-0.36973 2.42436,-0.92167 3.34395,-1.22654 1.47505,-0.48902 1.68135,-0.53398 1.75165,-0.38174 0.13488,0.29209 13.6696,50.9055 13.63827,51.00062 -0.0162,0.0491 -5.93544,-10.2013 -13.15392,-22.77869 z"
         style="fill:#e5ff80;stroke:#e5ff80;stroke-width:0.10511865;stroke-opacity:1" />
      <path
         inkscape:connector-curvature="0"
         id="path984"
         d="m 116.16184,191.95143 -18.878158,-19.10865 1.379107,-1.24068 c 1.911301,-1.71947 4.128071,-3.49487 5.952881,-4.76764 1.85478,-1.29367 3.53814,-2.38694 3.68159,-2.39103 0.10015,-0.003 26.83838,46.51987 26.77402,46.585 -0.0172,0.0174 -8.52645,-8.56725 -18.90944,-19.077 z"
         style="fill:#4cc031;fill-opacity:1;stroke:#9131c0;stroke-width:0.10511865;stroke-opacity:1" />
      <path
         inkscape:connector-curvature="0"
         id="path986"
         d="M 111.22321,197.57085 C 98.578922,190.2071 88.218177,184.16894 88.199341,184.1527 c -0.05505,-0.0474 1.176115,-2.00443 2.104809,-3.3457 1.238693,-1.78897 2.828647,-3.68296 4.894492,-5.83042 l 1.812803,-1.88442 18.705085,18.93543 c 10.28779,10.41449 18.65811,18.93464 18.60069,18.93366 -0.0574,-8.9e-4 -10.44971,-6.02666 -23.09401,-13.3904 z"
         style="fill:#a751c3;fill-opacity:1;stroke:#a751c3;stroke-width:0.10511865;stroke-opacity:1" />
      <path
         inkscape:connector-curvature="0"
         id="path988"
         d="m 108.66301,204.55918 c -13.937465,-3.79961 -25.443335,-6.93479 -25.568608,-6.96707 l -0.227765,-0.0587 0.261182,-0.97797 c 0.723229,-2.70805 1.614454,-5.25916 2.718895,-7.78277 0.688092,-1.57227 1.958714,-4.08806 2.113647,-4.18495 0.05984,-0.0374 34.445749,19.91327 46.147979,26.77504 0.13894,0.0815 0.15645,0.11958 0.0522,0.11368 -0.0862,-0.005 -11.56012,-3.11764 -25.49757,-6.91726 z"
         style="fill:#ef1d3f;fill-opacity:1;stroke:#ef1d3f;stroke-width:0.10511865;stroke-opacity:1" />
      <path
         inkscape:connector-curvature="0"
         id="path990"
         d="m 81.223923,210.14352 c 0.172247,-4.4002 0.602644,-7.97411 1.376288,-11.42833 0.16867,-0.75309 0.18119,-0.77291 0.44774,-0.70843 0.428934,0.10374 50.838529,13.80665 50.955889,13.85141 0.0575,0.0219 -11.8101,0.0436 -26.37238,0.0482 l -26.476867,0.008 z"
         style="fill:#f5ff00;fill-opacity:1;stroke:#f5ff00;stroke-width:0.10511865;stroke-opacity:1" />
      <path
         inkscape:connector-curvature="0"
         id="path992"
         d="m 83.175745,226.48181 c -0.05352,-0.14246 -0.286515,-1.11102 -0.51776,-2.15236 -0.745438,-3.35683 -1.21821,-6.79567 -1.325828,-9.64377 -0.03012,-0.79705 -0.07579,-1.65142 -0.101483,-1.89859 l -0.04672,-0.44941 26.880186,0.003 c 15.31536,0.002 26.81274,0.0428 26.72343,0.0953 -0.12058,0.0708 -49.957936,13.91787 -51.228707,14.23361 -0.239446,0.0595 -0.301583,0.029 -0.383118,-0.18801 z"
         style="fill:#e62ce5;fill-opacity:1;stroke:#e62ce5;stroke-width:0.10511865;stroke-opacity:1" />
      <path
         inkscape:connector-curvature="0"
         id="path994"
         d="m 87.423782,237.63663 c -1.472408,-2.91896 -2.535612,-5.53406 -3.527764,-8.67701 -0.299396,-0.94844 -0.519463,-1.74962 -0.489034,-1.78041 0.06969,-0.0705 49.534336,-13.78421 49.574056,-13.74403 0.0427,0.0433 -44.447938,25.97264 -44.564887,25.97264 -0.05441,0 -0.500978,-0.79704 -0.992371,-1.77119 z"
         style="fill:#0058d4;fill-opacity:1;stroke:#0058d4;stroke-width:0.10511865;stroke-opacity:1" />
      <path
         inkscape:connector-curvature="0"
         id="path996"
         d="m 95.357326,249.13579 c -2.230659,-2.31788 -3.985752,-4.65363 -5.994325,-7.9775 -0.420082,-0.69517 -0.72849,-1.29955 -0.685352,-1.34308 0.09386,-0.0947 45.594711,-26.63158 45.663251,-26.63158 0.0657,0 -37.061463,37.69 -37.163867,37.72731 -0.04534,0.0165 -0.864211,-0.7823 -1.819707,-1.77515 z"
         style="fill:#ff6600;fill-opacity:1;stroke:#ff6600;stroke-width:0.10511865;stroke-opacity:1" />
      <path
         inkscape:connector-curvature="0"
         id="path998"
         d="m 107.23163,258.76023 c -3.09422,-1.93786 -5.99133,-4.11994 -8.827175,-6.64856 -0.498273,-0.44429 -0.897982,-0.83707 -0.888234,-0.87285 0.0098,-0.0358 8.548039,-8.71989 18.973989,-19.29804 10.42595,-10.57815 18.92525,-19.14496 18.88733,-19.03736 -0.0743,0.21092 -26.48478,46.6029 -26.59558,46.71718 -0.0367,0.0378 -0.73433,-0.34933 -1.55033,-0.86037 z"
         style="fill:#00ff00;fill-opacity:1;stroke:#00ff00;stroke-width:0.10511865;stroke-opacity:1" />
      <path
         inkscape:connector-curvature="0"
         id="path1000"
         d="m 119.73514,264.73904 c -0.89343,-0.3055 -2.37469,-0.85883 -3.2917,-1.22964 -1.76425,-0.71339 -6.93325,-3.26615 -7.15092,-3.53155 -0.10655,-0.12991 2.05818,-3.99477 12.64643,-22.57868 7.02624,-12.33207 12.79558,-22.4011 12.82075,-22.37563 0.0315,0.0319 -13.07894,49.22648 -13.37888,50.20179 -0.0117,0.038 -0.75226,-0.18078 -1.64568,-0.48629 z"
         style="fill:#a0a0a0;stroke:none;stroke-width:0.10511865" />
      <path
         inkscape:connector-curvature="0"
         id="path1002"
         d="m 95.536167,249.32119 c -0.797895,-0.82876 -1.961602,-2.14921 -2.586015,-2.93436 -1.672795,-2.10338 -4.445994,-6.40777 -4.244099,-6.58743 0.07196,-0.064 4.116241,-2.43454 13.425807,-7.86938 24.83576,-14.4989 31.83368,-18.55604 31.89651,-18.49246 0.0601,0.0609 -36.254818,36.99397 -36.599495,37.2225 -0.139329,0.0924 -0.295775,0.16797 -0.347659,0.16797 -0.05188,0 -0.747152,-0.67808 -1.545049,-1.50684 z"
         style="fill:#ffd42a;fill-opacity:1;stroke:#ffd42a;stroke-width:0.10511865;stroke-opacity:1" />
      <path
         inkscape:connector-curvature="0"
         id="path1004"
         d="m 107.33075,258.81931 c -2.95733,-1.8299 -6.94519,-4.83827 -9.012349,-6.79877 l -0.783013,-0.74261 2.631262,-2.73634 c 3.32516,-3.45795 35.17888,-35.6603 35.12853,-35.51301 -0.0659,0.19291 -8.85634,15.67439 -18.64066,32.82954 -3.00191,5.26335 -5.99278,10.50795 -6.64639,11.65469 -0.65361,1.14674 -1.23782,2.08653 -1.29826,2.08842 -0.0604,0.002 -0.68104,-0.34997 -1.37912,-0.78192 z"
         style="fill:#ff6600;fill-opacity:1;stroke:#ff6600;stroke-width:0.10511865;stroke-opacity:1" />
      <path
         inkscape:connector-curvature="0"
         id="path1006"
         d="m 121.00062,265.09277 c -0.13993,-0.0566 -0.31627,-0.0788 -0.39187,-0.0495 -0.0756,0.0294 -0.13744,0.0153 -0.13744,-0.0313 0,-0.10853 -0.7377,-0.34024 -0.85323,-0.26799 -0.048,0.03 -0.0873,-9e-4 -0.0873,-0.0687 0,-0.0678 -0.0705,-0.0959 -0.15675,-0.0624 -0.0862,0.0335 -0.15675,0.0193 -0.15675,-0.0316 0,-0.1183 -0.93654,-0.44454 -1.05803,-0.36856 -0.0503,0.0315 -0.0914,0.0132 -0.0914,-0.0406 0,-0.0861 -1.25775,-0.59638 -1.66948,-0.67738 -0.0849,-0.0167 -0.22023,-0.0926 -0.30085,-0.16861 -0.0806,-0.076 -0.20802,-0.1144 -0.28311,-0.0853 -0.0751,0.0292 -0.15131,0.0142 -0.16939,-0.0333 -0.0474,-0.12435 -5.08022,-2.53124 -5.14846,-2.46218 -0.0314,0.0318 -0.0571,-6e-4 -0.0571,-0.0719 0,-0.0713 -0.047,-0.1002 -0.1045,-0.0642 -0.0575,0.0359 -0.1045,0.0159 -0.1045,-0.0445 0,-0.0604 -0.1881,-0.20694 -0.418,-0.32562 -0.22989,-0.11868 -0.41799,-0.27036 -0.41799,-0.33707 0,-0.19163 1.07072,-2.18736 3.13794,-5.84888 1.05073,-1.86107 1.91095,-3.44325 1.91161,-3.51595 5.9e-4,-0.0727 0.0392,-0.13217 0.0856,-0.13217 0.1188,0 0.40891,-0.59349 0.32943,-0.67392 -0.036,-0.0365 -0.015,-0.0663 0.0468,-0.0663 0.12342,0 1.14018,-1.77824 1.09816,-1.9206 -0.0144,-0.0487 0.0197,-0.0885 0.0757,-0.0885 0.1312,0 0.43311,-0.58662 0.34684,-0.67392 -0.036,-0.0365 -0.0156,-0.0663 0.0453,-0.0663 0.12296,0 1.55908,-2.51666 1.51759,-2.65943 -0.0144,-0.0494 0.0159,-0.0899 0.0673,-0.0899 0.0909,0 1.49851,-2.43305 1.50922,-2.60859 0.003,-0.0483 0.0903,-0.18009 0.19409,-0.29284 0.17788,-0.1932 0.22983,-0.32465 0.2011,-0.50878 -0.007,-0.0436 0.0303,-0.0793 0.0825,-0.0793 0.10223,0 1.10971,-1.75704 1.04271,-1.81847 -0.0222,-0.0203 0.0655,-0.15191 0.19478,-0.29237 0.21704,-0.23574 0.25069,-0.30929 0.2262,-0.49447 -0.005,-0.0371 0.0375,-0.0966 0.0943,-0.13218 0.14427,-0.0905 1.09544,-1.72755 1.09739,-1.88875 8.9e-4,-0.0727 0.0306,-0.13218 0.0661,-0.13218 0.0979,0 0.4475,-0.63422 0.35064,-0.63608 -0.0463,-9e-4 -0.0281,-0.0377 0.0405,-0.0819 0.15834,-0.10187 1.52424,-2.46214 1.5274,-2.63935 10e-4,-0.0727 0.0348,-0.13218 0.0745,-0.13218 0.0955,0 1.49241,-2.44697 1.49406,-2.61713 5.9e-4,-0.0727 0.0337,-0.13218 0.0734,-0.13218 0.0955,0 1.4924,-2.44697 1.49405,-2.61713 5.9e-4,-0.0727 0.0393,-0.13218 0.0857,-0.13218 0.1188,0 0.40891,-0.59349 0.32943,-0.67392 -0.036,-0.0365 -0.0147,-0.0663 0.0473,-0.0663 0.12473,0 1.10638,-1.66461 1.10638,-1.87613 0,-0.0731 0.038,-0.13298 0.0844,-0.13298 0.0464,0 0.15735,-0.14276 0.24651,-0.31723 0.0892,-0.17448 0.1284,-0.31723 0.0872,-0.31723 -0.0412,0 -0.001,-0.0595 0.0884,-0.13218 0.0898,-0.0727 1.11469,-1.79762 2.27752,-3.83317 1.16284,-2.03555 2.1564,-3.7462 2.20791,-3.80145 0.18125,-0.1944 0.0867,0.21308 -1.00899,4.34812 -0.60645,2.28874 -1.07392,4.20837 -1.03881,4.26586 0.0351,0.0575 0.0196,0.1045 -0.0344,0.1045 -0.12092,0 -0.36131,0.92401 -0.27651,1.06286 0.0337,0.0552 0.0172,0.10032 -0.0367,0.10032 -0.12039,0 -0.46586,1.34737 -0.38106,1.48621 0.0336,0.055 0.0168,0.0999 -0.0372,0.0999 -0.12092,0 -0.36131,0.924 -0.27651,1.06285 0.0337,0.0552 0.0171,0.10032 -0.037,0.10032 -0.12093,0 -0.36131,0.924 -0.27651,1.06285 0.0337,0.0552 0.0212,0.10031 -0.0277,0.10031 -0.11416,0 -0.36392,0.93489 -0.2845,1.06494 0.033,0.054 0.02,0.0982 -0.029,0.0982 -0.10947,0 -0.36553,0.93227 -0.29002,1.0559 0.03,0.0491 0.0171,0.10517 -0.0286,0.12468 -0.11772,0.0502 -0.45768,1.34958 -0.38446,1.46946 0.0333,0.0546 0.0206,0.0993 -0.0284,0.0993 -0.11417,0 -0.36393,0.93488 -0.2845,1.06493 0.033,0.054 0.0143,0.0982 -0.0415,0.0982 -0.0963,0 -0.2848,0.74909 -0.25945,1.03099 0.007,0.0727 -0.0258,0.13217 -0.0718,0.13217 -0.0716,0 -0.24449,0.68032 -0.2553,1.00456 -0.002,0.0582 -0.031,0.12953 -0.0646,0.15861 -0.098,0.0848 -0.40133,1.40768 -0.34424,1.50115 0.0286,0.0468 0.006,0.085 -0.0496,0.085 -0.0963,0 -0.28479,0.7491 -0.25945,1.031 0.007,0.0727 -0.0258,0.13217 -0.0718,0.13217 -0.0686,0 -0.20475,0.5154 -0.26537,1.00456 -0.007,0.0582 -0.0685,0.24243 -0.13618,0.40949 -0.0677,0.16706 -0.13925,0.42878 -0.15903,0.58158 -0.0198,0.15282 -0.0903,0.41453 -0.15675,0.58159 -0.0664,0.16706 -0.13455,0.43093 -0.15137,0.58637 -0.0168,0.15544 -0.0656,0.33994 -0.10838,0.41001 -0.0428,0.0701 -0.0487,0.17498 -0.0132,0.23314 0.0355,0.0582 0.0189,0.10574 -0.0369,0.10574 -0.0831,0 -0.21795,0.47848 -0.28315,1.00456 -0.007,0.0582 -0.0685,0.24243 -0.13618,0.40949 -0.0677,0.16706 -0.13925,0.42877 -0.15903,0.58159 -0.0198,0.15281 -0.0903,0.41452 -0.15675,0.58158 -0.0664,0.16706 -0.13697,0.42878 -0.15674,0.58159 -0.0198,0.15281 -0.0903,0.41452 -0.15675,0.58158 -0.0664,0.16706 -0.14011,0.45257 -0.16371,0.63446 -0.0236,0.18189 -0.0532,0.3545 -0.0659,0.38358 -0.0126,0.0291 -0.032,0.10045 -0.043,0.15861 -0.011,0.0582 -0.0757,0.2432 -0.14375,0.4112 -0.068,0.168 -0.0993,0.33017 -0.0694,0.36037 0.0298,0.0302 0.006,0.11376 -0.053,0.18569 -0.059,0.0719 -0.098,0.17147 -0.0867,0.22122 0.0113,0.0497 -0.0351,0.22712 -0.10312,0.39418 -0.068,0.16706 -0.13995,0.42878 -0.15988,0.58159 -0.0199,0.1528 -0.0618,0.34921 -0.093,0.43645 -0.19306,0.53925 -0.27494,0.88128 -0.22899,0.95652 0.029,0.0475 0.0102,0.11285 -0.0417,0.1453 -0.0786,0.0491 -0.21632,0.52197 -0.2797,0.96016 -0.008,0.0582 -0.0419,0.17712 -0.0744,0.26436 -0.18418,0.49455 -0.27755,0.88074 -0.23127,0.95652 0.029,0.0475 0.002,0.11818 -0.0606,0.15716 -0.0623,0.039 -0.0887,0.13592 -0.0585,0.21541 0.0302,0.0795 0.0152,0.16932 -0.0333,0.19962 -0.0735,0.0459 -0.21169,0.52936 -0.27343,0.95624 -0.008,0.0582 -0.0419,0.17712 -0.0744,0.26436 -0.18417,0.49455 -0.27755,0.88074 -0.23126,0.95652 0.029,0.0475 0.0102,0.11285 -0.0417,0.1453 -0.0814,0.0509 -0.24819,0.63893 -0.27236,0.96016 -0.004,0.0582 -0.0364,0.15333 -0.0713,0.21149 -0.0561,0.0937 -0.20941,0.66421 -0.25575,0.95168 -0.009,0.0582 -0.0296,0.15333 -0.045,0.21148 -0.0154,0.0582 -0.037,0.15333 -0.048,0.21149 -0.011,0.0582 -0.0754,0.24243 -0.14311,0.40949 -0.0677,0.16706 -0.13926,0.42877 -0.15903,0.58159 -0.0198,0.1528 -0.0903,0.41452 -0.15675,0.58158 -0.0664,0.16706 -0.13697,0.42877 -0.15674,0.58158 -0.0198,0.15282 -0.0903,0.41453 -0.15675,0.58159 -0.0664,0.16706 -0.13698,0.42878 -0.15675,0.58158 -0.0198,0.15281 -0.0903,0.41453 -0.15675,0.58159 -0.0664,0.16706 -0.13697,0.42877 -0.15674,0.58158 -0.0356,0.27479 -0.24104,0.86568 -0.29652,0.85272 -0.0158,-0.004 -0.1432,-0.053 -0.28314,-0.10956 z"
         style="fill:#a0a0a0;stroke:none;stroke-width:0.10511865" />
      <path
         inkscape:connector-curvature="0"
         id="path1010"
         d="m 120.9505,265.0987 c -0.16749,-0.0507 -0.34383,-0.0676 -0.39186,-0.0375 -0.048,0.03 -0.0873,0.0122 -0.0873,-0.0396 0,-0.11539 -0.73185,-0.35346 -0.85323,-0.27755 -0.048,0.03 -0.0873,-9e-4 -0.0873,-0.0687 0,-0.0678 -0.0705,-0.0959 -0.15675,-0.0624 -0.0862,0.0335 -0.15675,0.01 -0.15675,-0.0529 0,-0.0626 -0.0705,-0.0864 -0.15675,-0.0529 -0.0862,0.0335 -0.15674,0.0194 -0.15674,-0.0312 0,-0.11487 -0.62024,-0.34096 -0.73628,-0.26839 -0.0469,0.0293 -0.11528,0.004 -0.15196,-0.0559 -0.0367,-0.0601 -0.11047,-0.0818 -0.16397,-0.0484 -0.0535,0.0335 -0.0973,0.0168 -0.0973,-0.037 0,-0.0867 -0.94464,-0.48244 -1.35847,-0.56915 -0.0862,-0.0181 -0.1877,-0.0762 -0.22552,-0.12911 -0.0378,-0.053 -0.15539,-0.10306 -0.26125,-0.11136 -0.10586,-0.008 -0.31972,-0.0999 -0.47525,-0.20364 -0.15552,-0.10371 -0.32785,-0.16036 -0.38294,-0.12591 -0.0551,0.0345 -0.11594,0.0169 -0.13522,-0.0391 -0.0405,-0.11749 -4.14284,-2.12016 -4.34304,-2.12016 -0.0733,0 -0.13318,-0.0504 -0.13318,-0.11198 0,-0.0616 -0.047,-0.0826 -0.1045,-0.0466 -0.0575,0.0359 -0.1045,0.0237 -0.1045,-0.0272 0,-0.0509 -0.1881,-0.19949 -0.418,-0.33024 -0.22989,-0.13074 -0.41799,-0.28344 -0.41799,-0.33933 0,-0.17984 0.72548,-1.56992 2.1198,-4.06169 0.7485,-1.33765 1.36149,-2.49157 1.3622,-2.56426 5.9e-4,-0.0727 0.0362,-0.13218 0.0788,-0.13218 0.0921,0 1.34643,-2.23446 1.42503,-2.53862 0.0299,-0.11588 0.0948,-0.21069 0.14408,-0.21069 0.0493,0 0.16258,-0.14276 0.25174,-0.31723 0.0892,-0.17448 0.13557,-0.31723 0.10311,-0.31723 -0.0324,0 0.0251,-0.0924 0.12794,-0.20524 0.10282,-0.11288 0.37504,-0.57419 0.60494,-1.02513 0.2299,-0.45094 0.50028,-0.91477 0.60087,-1.03074 0.16912,-0.195 0.19784,-0.26928 0.17394,-0.44994 -0.005,-0.0371 0.0359,-0.0966 0.0906,-0.13218 0.13891,-0.0903 1.48579,-2.46297 1.48579,-2.61739 0,-0.0694 0.0409,-0.14198 0.091,-0.16137 0.10159,-0.0393 1.4765,-2.41233 1.4765,-2.5483 0,-0.0476 0.094,-0.18863 0.20899,-0.31349 0.11495,-0.12485 0.209,-0.29139 0.209,-0.37009 0,-0.0787 0.0823,-0.23347 0.18287,-0.34392 0.10058,-0.11045 0.37097,-0.56977 0.60086,-1.02071 0.2299,-0.45094 0.50029,-0.91477 0.60087,-1.03073 0.10058,-0.11597 0.18287,-0.29309 0.18287,-0.39359 0,-0.10051 0.04,-0.1986 0.0888,-0.21799 0.12255,-0.0487 1.06071,-1.6912 1.06071,-1.85709 0,-0.0739 0.0369,-0.13439 0.082,-0.13439 0.10931,0 0.47616,-0.634 0.36806,-0.63608 -0.0463,-9e-4 -0.0317,-0.0366 0.0325,-0.0793 0.15192,-0.1011 1.50299,-2.46562 1.50299,-2.63039 0,-0.0694 0.044,-0.14198 0.0978,-0.16137 0.12383,-0.0446 1.46972,-2.41211 1.46972,-2.58529 0,-0.0708 0.044,-0.14463 0.0977,-0.16402 0.12766,-0.046 1.46972,-2.41481 1.46972,-2.5941 0,-0.0757 0.0369,-0.13758 0.082,-0.13758 0.1093,0 0.47616,-0.634 0.36806,-0.63608 -0.0464,-8.9e-4 -0.0301,-0.0366 0.0361,-0.0793 0.15783,-0.10185 1.11252,-1.73079 1.11459,-1.90175 8.9e-4,-0.0727 0.0306,-0.13217 0.0661,-0.13217 0.0979,0 0.44751,-0.63422 0.35064,-0.63608 -0.0464,-8.9e-4 -0.0301,-0.0366 0.0362,-0.0793 0.16085,-0.10375 1.53412,-2.4655 1.53412,-2.63837 0,-0.0747 0.0347,-0.13575 0.0772,-0.13575 0.0424,0 0.20568,-0.22603 0.36278,-0.50228 1.61774,-2.84476 2.60203,-4.48553 2.63352,-4.38993 0.021,0.0636 -0.22498,1.1205 -0.54656,2.34856 -0.32157,1.22806 -0.5565,2.27898 -0.52205,2.33537 0.0344,0.0564 0.0185,0.10254 -0.0353,0.10254 -0.12039,0 -0.46586,1.34737 -0.38106,1.48621 0.0336,0.055 0.0168,0.0999 -0.0372,0.0999 -0.12092,0 -0.36131,0.924 -0.27651,1.06285 0.0337,0.0552 0.0156,0.10031 -0.0402,0.10031 -0.0963,0 -0.28479,0.7491 -0.25945,1.031 0.007,0.0727 -0.0247,0.13217 -0.0694,0.13217 -0.0743,0 -0.235,0.56873 -0.26891,0.95169 -0.008,0.0872 -0.0645,0.28355 -0.1263,0.43626 -0.19938,0.49314 -0.34736,1.15197 -0.28256,1.25806 0.0347,0.0568 0.0185,0.10331 -0.0359,0.10331 -0.0887,0 -0.24976,0.53466 -0.28667,0.95168 -0.008,0.0872 -0.069,0.2953 -0.13611,0.46236 -0.0671,0.16706 -0.13824,0.42878 -0.15802,0.58159 -0.0198,0.15281 -0.0903,0.41452 -0.15675,0.58158 -0.0664,0.16706 -0.13697,0.42878 -0.15675,0.58159 -0.0198,0.15281 -0.0903,0.41452 -0.15674,0.58158 -0.0664,0.16706 -0.13697,0.42878 -0.15675,0.58159 -0.0198,0.15281 -0.0833,0.39679 -0.14115,0.54219 -0.10245,0.25744 -0.24886,0.84353 -0.29057,1.16317 -0.0114,0.0872 -0.0754,0.2953 -0.14225,0.46236 -0.0669,0.16706 -0.13774,0.42878 -0.15752,0.58159 -0.0198,0.15281 -0.0903,0.41452 -0.15674,0.58158 -0.0664,0.16706 -0.13698,0.42878 -0.15675,0.58159 -0.0198,0.15281 -0.0903,0.41452 -0.15675,0.58158 -0.0664,0.16706 -0.13697,0.42878 -0.15675,0.58159 -0.0198,0.1528 -0.0833,0.39679 -0.14115,0.54219 -0.10245,0.25744 -0.24885,0.84353 -0.29056,1.16317 -0.0114,0.0872 -0.0754,0.2953 -0.14226,0.46236 -0.0669,0.16706 -0.13774,0.42878 -0.15751,0.58159 -0.0198,0.15281 -0.0903,0.41452 -0.15675,0.58158 -0.0664,0.16706 -0.13698,0.42878 -0.15675,0.58159 -0.0198,0.15281 -0.0903,0.41452 -0.15675,0.58158 -0.0664,0.16706 -0.13455,0.43093 -0.15137,0.58637 -0.0168,0.15544 -0.0585,0.32841 -0.0927,0.38438 -0.0342,0.056 -0.0996,0.29174 -0.1453,0.52393 -0.10272,0.52155 -0.11166,0.56153 -0.14767,0.66009 -0.0159,0.0436 -0.038,0.12689 -0.049,0.18505 -0.011,0.0582 -0.0754,0.24243 -0.14311,0.40949 -0.0677,0.16706 -0.13938,0.42878 -0.15931,0.58159 -0.0199,0.1528 -0.0618,0.34921 -0.093,0.43645 -0.19306,0.53925 -0.27494,0.88128 -0.22898,0.95652 0.029,0.0475 0.0102,0.11285 -0.0417,0.1453 -0.0814,0.0509 -0.24819,0.63893 -0.27236,0.96016 -0.004,0.0582 -0.0365,0.15333 -0.0713,0.21148 -0.0348,0.0582 -0.0932,0.2485 -0.12963,0.42298 -0.19411,0.92878 -0.20623,0.97678 -0.30702,1.21604 -0.0367,0.0872 -0.0805,0.25378 -0.0972,0.3701 -0.0167,0.11631 -0.067,0.27096 -0.11188,0.34366 -0.0448,0.0727 -0.0545,0.17647 -0.0214,0.23061 0.0331,0.0541 0.0177,0.12499 -0.0342,0.15745 -0.0814,0.0509 -0.2482,0.63893 -0.27237,0.96016 -0.004,0.0582 -0.0377,0.15369 -0.0741,0.21229 -0.0845,0.13616 -0.2241,0.88126 -0.17471,0.93249 0.0205,0.0213 -0.0172,0.10555 -0.0839,0.18719 -0.0667,0.0816 -0.15863,0.33877 -0.20428,0.5714 -0.10224,0.52092 -0.1114,0.56199 -0.14754,0.66089 -0.0159,0.0436 -0.0381,0.12689 -0.0493,0.18505 -0.0112,0.0582 -0.0505,0.17712 -0.0874,0.26436 -0.0369,0.0872 -0.0807,0.25378 -0.0974,0.3701 -0.0167,0.11631 -0.069,0.27413 -0.11618,0.35069 -0.0472,0.0766 -0.058,0.16736 -0.024,0.20176 0.034,0.0344 0.0196,0.11451 -0.032,0.17801 -0.0516,0.0635 -0.12353,0.28202 -0.1599,0.48558 -0.0903,0.50516 -0.10625,0.56561 -0.18209,0.68813 -0.0522,0.0844 -0.20605,0.7316 -0.23855,1.00375 -0.003,0.0291 -0.0366,0.10082 -0.0736,0.15942 -0.0641,0.1015 -0.21583,0.8032 -0.21087,0.97518 0.001,0.0448 -0.0353,0.12903 -0.0812,0.18719 -0.046,0.0582 -0.11328,0.24849 -0.14963,0.42297 -0.18404,0.88353 -0.20083,0.95186 -0.29881,1.21604 -0.185,0.49881 -0.27727,0.8808 -0.23103,0.95652 0.029,0.0475 0.0102,0.11284 -0.0416,0.1453 -0.0786,0.0491 -0.21632,0.52197 -0.2797,0.96016 -0.008,0.0582 -0.0419,0.17712 -0.0744,0.26436 -0.18418,0.49455 -0.27755,0.88074 -0.23126,0.95652 0.029,0.0475 0.0102,0.11284 -0.0417,0.1453 -0.0786,0.0492 -0.21806,0.52823 -0.27943,0.96016 -0.0208,0.14661 -0.24502,0.68936 -0.28015,0.67824 -0.0158,-0.005 -0.16575,-0.0506 -0.33325,-0.10125 z"
         style="fill:#00ff00;fill-opacity:1;stroke:#00ff00;stroke-width:0.10511865;stroke-opacity:1" />
      <path
         inkscape:connector-curvature="0"
         id="path1012"
         d="m 133.69034,267.52964 c -3.49261,-0.20484 -7.35718,-0.85246 -10.78873,-1.80796 -0.72173,-0.20096 -1.17013,-0.37671 -1.14321,-0.44808 0.0244,-0.0646 3.13235,-11.65661 6.90663,-25.76004 3.77429,-14.10343 6.88027,-25.69019 6.90219,-25.74835 0.0219,-0.0582 0.0436,12.04013 0.0481,26.88508 l 0.008,26.99083 -0.28737,-0.0159 c -0.15806,-0.009 -0.89869,-0.0518 -1.64585,-0.0956 z"
         style="fill:#00dfff;fill-opacity:1;stroke:#00dfff;stroke-width:0.10511865;stroke-opacity:1" />
      <path
         inkscape:connector-curvature="0"
         id="path1014"
         d="m 136.05368,240.70316 c 0.007,-14.81587 0.0333,-26.86657 0.0591,-26.77934 0.0258,0.0872 3.16135,11.76917 6.9678,25.95984 4.57484,17.0553 6.88271,25.82548 6.80843,25.87281 -0.18687,0.11903 -2.12416,0.593 -3.77543,0.92368 -2.67374,0.53543 -6.75793,0.95896 -9.26219,0.96048 l -0.80985,5.9e-4 z"
         style="fill:#ff0000;fill-opacity:1;stroke:#ff0000;stroke-width:0.10511865;stroke-opacity:1" />
      <path
         inkscape:connector-curvature="0"
         id="path1016"
         d="m 150.35782,265.57582 c 0,-0.0331 -3.13046,-11.74429 -6.95657,-26.02483 -3.82611,-14.28053 -6.93574,-25.98568 -6.91028,-26.01144 0.0521,-0.0527 26.61564,46.21308 26.61564,46.35644 0,0.2377 -4.56624,2.63641 -7.05364,3.70536 -2.0007,0.85981 -5.69515,2.14064 -5.69515,1.97447 z"
         style="fill:#e5ff80;fill-opacity:1;stroke:#e5ff80;stroke-width:0.10511865;stroke-opacity:1" />
      <path
         inkscape:connector-curvature="0"
         id="path1018"
         d="m 163.38143,259.47234 c -0.54086,-0.87014 -26.08557,-45.47835 -26.05862,-45.50563 0.0186,-0.0188 8.32231,8.35314 18.45273,18.60432 l 18.41893,18.6385 -1.34377,1.3258 c -2.17835,2.1492 -5.67988,4.86809 -8.87967,6.89493 l -0.44181,0.27986 z"
         style="fill:#4cc031;fill-opacity:1;stroke:#4cc031;stroke-width:0.10511865;stroke-opacity:1" />
      <path
         inkscape:connector-curvature="0"
         id="path1020"
         d="m 155.79173,232.0587 c -10.20152,-10.32313 -18.50889,-18.76933 -18.46082,-18.76933 0.10685,0 45.31704,26.31127 45.49769,26.47859 0.19065,0.17659 -2.24885,3.83157 -4.34715,6.51313 -0.81019,1.0354 -3.95746,4.54694 -4.07527,4.54694 -0.0364,0 -8.41293,-8.4462 -18.61445,-18.76933 z"
         style="fill:#a751c3;fill-opacity:1;stroke:#a751c3;stroke-width:0.10511865;stroke-opacity:1" />
      <path
         inkscape:connector-curvature="0"
         id="path1022"
         d="m 163.68135,219.52533 c -13.85125,-3.7728 -25.41921,-6.92961 -25.70658,-7.01512 -0.46318,-0.13782 2.51621,-0.15644 26.24644,-0.164 l 26.76893,-0.009 -0.0497,1.45396 c -0.10587,3.0998 -0.4548,6.07504 -1.03859,8.85595 -0.32165,1.53215 -0.90441,3.75704 -0.98109,3.74563 -0.0305,-0.005 -11.3882,-3.09509 -25.23945,-6.86789 z"
         style="fill:#ef1d3f;fill-opacity:1;stroke:none;stroke-width:0.10511865" />
      <path
         inkscape:connector-curvature="0"
         id="path1024"
         d="m 160.31262,226.16441 c -12.4855,-7.27663 -22.68384,-13.24751 -22.66297,-13.26863 0.0395,-0.04 51.07608,13.8203 51.15785,13.89324 0.16722,0.14915 -1.70192,5.03428 -2.88614,7.54315 -0.94574,2.00363 -2.64097,5.07806 -2.79506,5.06905 -0.062,-0.004 -10.32818,-5.96019 -22.81368,-13.23681 z"
         style="fill:#ef1d3f;fill-opacity:1;stroke:#ef1d3f;stroke-width:0.10511865;stroke-opacity:1" />
      <path
         inkscape:connector-curvature="0"
         id="path1026"
         d="m 180.08758,223.95799 c -4.6554,-1.27481 -15.89419,-4.3411 -24.97509,-6.81396 -9.0809,-2.47286 -16.60291,-4.5342 -16.71559,-4.58075 -0.2081,-0.086 26.60731,-0.22549 43.35297,-0.22556 l 9.18618,-4e-5 -0.0663,1.77786 c -0.13205,3.53935 -0.60192,6.92446 -1.41179,10.17107 -0.4235,1.69771 -0.51561,1.95842 -0.69698,1.97274 -0.11495,0.009 -4.01796,-1.02654 -8.67336,-2.30136 z"
         style="fill:#f5ff00;fill-opacity:1;stroke:#f5ff00;stroke-width:0.10511865;stroke-opacity:1" />
      <path
         d="m 140.41703,210.70204 a 5.0857959,4.8355193 0 0 1 -3.44332,6.0038 5.0857959,4.8355193 0 0 1 -6.31459,-3.27379 5.0857959,4.8355193 0 0 1 3.44315,-6.00389 5.0857959,4.8355193 0 0 1 6.31469,3.27364 l -4.8789,1.36519 z"
         sodipodi:end="5.9969688"
         sodipodi:start="5.9970211"
         sodipodi:ry="4.8355193"
         sodipodi:rx="5.0857959"
         sodipodi:cy="212.06699"
         sodipodi:cx="135.53806"
         sodipodi:type="arc"
         id="path1081"
         style="fill:#000000;fill-rule:evenodd;stroke-width:0.29732043" />
      <path
         style="fill:#e6e6e6;fill-rule:evenodd;stroke-width:0.27954578"
         id="path1083"
         sodipodi:type="arc"
         sodipodi:cx="135.57503"
         sodipodi:cy="212.06718"
         sodipodi:rx="4.7533226"
         sodipodi:ry="4.5736303"
         sodipodi:start="5.9970211"
         sodipodi:end="5.9969688"
         d="m 140.13505,210.77617 a 4.7533226,4.5736303 0 0 1 -3.21822,5.67864 4.7533226,4.5736303 0 0 1 -5.90179,-3.09649 4.7533226,4.5736303 0 0 1 3.21807,-5.67872 4.7533226,4.5736303 0 0 1 5.90187,3.09634 l -4.55995,1.29124 z" />
      <path
         sodipodi:nodetypes="ccc"
         inkscape:connector-curvature="0"
         id="path4764"
         d="m 136.95779,209.73878 c 2.26883,1.89863 1.84952,3.73398 -0.11084,5.53308 v 0"
         style="fill:none;stroke:#000000;stroke-width:0.29732043px;stroke-linecap:butt;stroke-linejoin:miter;stroke-opacity:0" />
      <path
         d="m 136.3048,211.87992 a 0.79679942,0.77985239 0 0 1 -0.53947,0.96827 0.79679942,0.77985239 0 0 1 -0.98932,-0.52799 0.79679942,0.77985239 0 0 1 0.53945,-0.96828 0.79679942,0.77985239 0 0 1 0.98933,0.52796 l -0.76438,0.22017 z"
         sodipodi:end="5.9969688"
         sodipodi:start="5.9970211"
         sodipodi:ry="0.77985239"
         sodipodi:rx="0.79679942"
         sodipodi:cy="212.10005"
         sodipodi:cx="135.54041"
         sodipodi:type="arc"
         id="path1127"
         style="fill:#000000;fill-rule:evenodd;stroke-width:0.29732043" />
    </g>
  </g>
</svg>
