<?xml version="1.0" encoding="UTF-8" standalone="no"?>
<!-- Created with Inkscape (http://www.inkscape.org/) -->

<svg
   xmlns:dc="http://purl.org/dc/elements/1.1/"
   xmlns:cc="http://creativecommons.org/ns#"
   xmlns:rdf="http://www.w3.org/1999/02/22-rdf-syntax-ns#"
   xmlns:svg="http://www.w3.org/2000/svg"
   xmlns="http://www.w3.org/2000/svg"
   xmlns:xlink="http://www.w3.org/1999/xlink"
   xmlns:sodipodi="http://sodipodi.sourceforge.net/DTD/sodipodi-0.dtd"
   xmlns:inkscape="http://www.inkscape.org/namespaces/inkscape"
   width="1024"
   height="500"
   viewBox="0 0 270.93333 132.29167"
   version="1.1"
   id="svg8"
   inkscape:version="0.92.4 (5da689c313, 2019-01-14)"
   sodipodi:docname="wheelOfChoresFeaturedGraphic.svg"
   inkscape:export-filename="C:\Users\Satos\AndroidStudioProjects\ChoreWheelApplication\Chore Wheel Images\wheelOfChoresFeaturedGraphic.png"
   inkscape:export-xdpi="95.999992"
   inkscape:export-ydpi="95.999992">
  <defs
     id="defs2">
    <path
       style="fill:none;stroke:#000000;stroke-width:0.26458332px;stroke-linecap:butt;stroke-linejoin:miter;stroke-opacity:0"
       d="m -38.265364,157.65859 c 2.031001,1.6796 1.655644,3.30323 -0.09922,4.89479 v 0"
       id="path1105"
       inkscape:connector-curvature="0"
       sodipodi:nodetypes="ccc" />
    <path
       style="fill:none;stroke:#000000;stroke-width:0.26458332px;stroke-linecap:butt;stroke-linejoin:miter;stroke-opacity:0"
       d="m -38.265364,157.65859 c 2.031001,1.6796 1.655644,3.30323 -0.09922,4.89479 v 0"
       id="path144"
       inkscape:connector-curvature="0"
       sodipodi:nodetypes="ccc" />
  </defs>
  <sodipodi:namedview
     id="base"
     pagecolor="#ffffff"
     bordercolor="#666666"
     borderopacity="1.0"
     inkscape:pageopacity="0.0"
     inkscape:pageshadow="2"
     inkscape:zoom="0.98994949"
     inkscape:cx="350"
     inkscape:cy="219.77233"
     inkscape:document-units="px"
     inkscape:current-layer="layer1"
     showgrid="false"
     units="px"
     inkscape:window-width="1920"
     inkscape:window-height="974"
     inkscape:window-x="-11"
     inkscape:window-y="-11"
     inkscape:window-maximized="1"
     fit-margin-top="0"
     fit-margin-left="0"
     fit-margin-right="0"
     fit-margin-bottom="0" />
  <metadata
     id="metadata5">
    <rdf:RDF>
      <cc:Work
         rdf:about="">
        <dc:format>image/svg+xml</dc:format>
        <dc:type
           rdf:resource="http://purl.org/dc/dcmitype/StillImage" />
        <dc:title></dc:title>
      </cc:Work>
    </rdf:RDF>
  </metadata>
  <g
     inkscape:label="Layer 1"
     inkscape:groupmode="layer"
     id="layer1"
     transform="translate(0,-164.7083)">
    <g
       id="g1667">
      <rect
         ry="1.6940472"
         rx="0.036243804"
         y="164.7083"
         x="0"
         height="132.29167"
         width="270.93335"
         id="rect10"
         style="fill:#b1eaf6;fill-opacity:1;fill-rule:evenodd;stroke-width:0.26414153" />
      <g
         transform="matrix(1.1131434,0,0,1.1262191,118.26609,54.606073)"
         id="g5134">
        <g
           id="g861"
           transform="matrix(1.0075661,0,0,1,-0.9483122,0)">
          <path
             d="M 123.18113,206.45902 A 53.011158,52.746578 0 0 1 87.29001,271.94944 53.011158,52.746578 0 0 1 21.470686,236.2382 53.011158,52.746578 0 0 1 57.360315,170.74697 53.011158,52.746578 0 0 1 123.18045,206.45674 l -50.854713,14.8913 z"
             sodipodi:end="5.9969759"
             sodipodi:start="5.9970211"
             sodipodi:ry="52.746578"
             sodipodi:rx="53.011158"
             sodipodi:cy="221.34804"
             sodipodi:cx="72.325737"
             sodipodi:type="arc"
             id="path28"
             style="fill:#000000;fill-rule:evenodd;stroke-width:0.26965263"
             transform="translate(0,-63.902068)" />
          <path
             transform="translate(0,-63.902068)"
             style="fill:#666666;fill-rule:evenodd;stroke-width:0.26155722"
             id="path33"
             sodipodi:type="arc"
             sodipodi:cx="72.325737"
             sodipodi:cy="221.21574"
             sodipodi:rx="51.423656"
             sodipodi:ry="51.159077"
             sodipodi:start="5.9970211"
             sodipodi:end="5.9969759"
             d="M 121.65818,206.77484 A 51.423656,51.159077 0 0 1 86.841882,270.29421 51.423656,51.159077 0 0 1 22.99362,235.65776 51.423656,51.159077 0 0 1 57.808477,172.13761 51.423656,51.159077 0 0 1 121.65753,206.77262 l -49.331793,14.44312 z" />
        </g>
        <path
           style="fill:#ececec;stroke:none;stroke-width:0.70710677"
           d="M 254.31178,786.97172 C 184.98612,780.01257 126.10455,739.84295 96.275248,679.15754 82.644147,651.42611 76.518117,625.15654 76.486675,594.30039 c -0.04803,-47.13758 17.160221,-91.97101 49.047765,-127.78631 30.19945,-33.91928 71.44892,-55.79997 119.23139,-63.24604 11.52247,-1.79558 42.03651,-1.79485 54.09367,0.001 71.23499,10.61178 129.55029,56.2306 155.16894,121.38539 20.00833,50.8863 17.31964,107.4342 -7.43066,156.27961 -9.69663,19.13657 -19.83285,32.98457 -35.99493,49.1759 -16.74665,16.77696 -30.80216,26.87382 -51.63927,37.09538 -19.09265,9.36582 -37.90865,15.23288 -59.04066,18.40962 -10.98293,1.65103 -35.43316,2.3782 -45.61114,1.3565 z m 40.41771,-6.02038 c 31.83397,-4.17307 62.872,-17.58565 90.62183,-39.16076 9.89526,-7.69344 24.65616,-23.00743 33.88346,-35.15307 32.67799,-43.01318 45.51324,-91.26863 36.92556,-138.82544 -4.39462,-24.33648 -14.88331,-49.89646 -29.80644,-72.63555 -9.3672,-14.27325 -14.06598,-20.16535 -23.86316,-29.92352 -25.28132,-25.18066 -54.62386,-42.43733 -86.51775,-50.88205 -57.06911,-15.1105 -114.876,-1.76264 -164.1907,37.91233 -8.95535,7.20482 -23.49316,21.47994 -29.85687,29.31738 -19.59814,24.13672 -31.981185,54.95019 -35.998873,89.57813 -1.407502,12.13108 -0.998706,39.06407 0.764219,50.34955 3.573361,22.8751 11.685833,46.8751 22.108984,65.40737 8.66464,15.40567 16.23344,25.43694 27.52753,36.48346 31.85415,31.1559 73.23142,51.82237 115.15607,57.51634 9.9636,1.35319 32.97988,1.36162 43.24614,0.0158 z"
           id="path1077"
           inkscape:connector-curvature="0"
           transform="scale(0.26458333)" />
        <path
           style="fill:#051806;fill-opacity:1;stroke:#000000;stroke-width:0.70710677;stroke-opacity:1"
           d="m 255.72599,793.62797 c -52.41037,-5.41722 -95.35331,-25.8611 -130.2187,-61.99332 -29.816116,-30.89949 -48.592408,-70.72907 -54.072561,-114.70251 -1.146667,-9.201 -1.154268,-34.81622 -0.01301,-43.84062 5.899855,-46.6525 26.245347,-87.82767 59.242751,-119.89533 54.34622,-52.81497 134.61904,-70.86518 206.3788,-46.40649 62.73699,21.38337 110.60015,71.26751 128.693,134.12697 5.65641,19.6519 7.77391,37.15817 7.21639,59.66117 -0.52398,21.14926 -3.06834,36.24644 -9.3106,55.24518 -16.66887,50.73289 -52.00359,91.95001 -99.37518,115.91883 -21.16895,10.71095 -41.06429,16.99317 -65.3077,20.62177 -6.88754,1.03089 -36.9781,1.91088 -43.23319,1.26435 z m 41.0149,-7.00537 c 24.55198,-3.21848 49.97143,-11.49888 70.71948,-23.03692 17.50506,-9.73461 31.23591,-20.27487 45.62112,-35.02032 46.52523,-47.69032 65.00509,-114.62274 49.40775,-178.95057 -8.25856,-34.06065 -26.53689,-66.60203 -51.15614,-91.07457 -55.77055,-55.43821 -138.86453,-72.56074 -212.17565,-43.7214 -37.23618,14.64807 -68.37215,39.6614 -90.51107,72.71278 -16.740442,24.99196 -26.406835,50.0433 -31.240925,80.96373 -1.729334,11.06138 -1.73552,40.64395 -0.01084,51.8346 8.847688,57.40852 38.677095,104.26891 86.407495,135.74152 9.45205,6.23252 28.83537,16.0219 39.49902,19.94864 15.35523,5.65434 36.10527,10.238 52.77841,11.65868 9.81502,0.83632 30.27965,0.30476 40.66135,-1.05617 z"
           id="path1079"
           inkscape:connector-curvature="0"
           transform="scale(0.26458333)" />
      </g>
      <g
         transform="matrix(0.72165076,0,0,0.72957095,272.34465,124.02386)"
         id="g5127">
        <g
           id="g1200"
           transform="matrix(1.5460074,0,0,1.5462038,-42.179779,-99.430021)">
          <g
             transform="translate(83.822121,71.301266)"
             id="g1075">
            <g
               style="stroke:#040000;stroke-opacity:1"
               id="g946"
               transform="translate(34.050137,2.80633)">
              <path
                 inkscape:connector-curvature="0"
                 id="path885"
                 d="m -206.20732,85.670167 98.58632,0.0059 v 0"
                 style="fill:#ff0000;stroke:#040000;stroke-width:0.26458332px;stroke-linecap:butt;stroke-linejoin:miter;stroke-opacity:1" />
              <path
                 inkscape:connector-curvature="0"
                 id="path887"
                 d="m -157.15354,36.358306 0.007,98.568344"
                 style="fill:none;stroke:#040000;stroke-width:0.26458332px;stroke-linecap:butt;stroke-linejoin:miter;stroke-opacity:1" />
              <path
                 inkscape:connector-curvature="0"
                 id="path889"
                 d="m -170.01393,38.139205 25.7781,95.086765"
                 style="fill:none;stroke:#040000;stroke-width:0.26458332px;stroke-linecap:butt;stroke-linejoin:miter;stroke-opacity:1" />
              <path
                 inkscape:connector-curvature="0"
                 id="path891"
                 d="m -144.31795,38.214458 -25.65996,94.691972"
                 style="fill:none;stroke:#040000;stroke-width:0.26458332px;stroke-linecap:butt;stroke-linejoin:miter;stroke-opacity:1" />
              <path
                 inkscape:connector-curvature="0"
                 id="path893"
                 d="m -181.68221,43.170506 49.25838,84.841034"
                 style="fill:none;stroke:#040000;stroke-width:0.26458332px;stroke-linecap:butt;stroke-linejoin:miter;stroke-opacity:1" />
              <path
                 inkscape:connector-curvature="0"
                 id="path895"
                 d="m -132.54282,43.40706 -48.76982,84.58821"
                 style="fill:none;stroke:#040000;stroke-width:0.26458332px;stroke-linecap:butt;stroke-linejoin:miter;stroke-opacity:1" />
              <path
                 inkscape:connector-curvature="0"
                 id="path897"
                 d="m -191.89872,50.92057 69.31419,69.2869"
                 style="fill:none;stroke:#040000;stroke-width:0.26458332px;stroke-linecap:butt;stroke-linejoin:miter;stroke-opacity:1" />
              <path
                 inkscape:connector-curvature="0"
                 id="path899"
                 d="m -132.54282,43.40706 -48.76982,84.58821"
                 style="fill:none;stroke:#040000;stroke-width:0.26458332px;stroke-linecap:butt;stroke-linejoin:miter;stroke-opacity:1" />
              <path
                 inkscape:connector-curvature="0"
                 id="path901"
                 d="m -122.73489,51.065445 -69.0182,69.204325"
                 style="fill:none;stroke:#040000;stroke-width:0.26458332px;stroke-linecap:butt;stroke-linejoin:miter;stroke-opacity:1" />
              <path
                 inkscape:connector-curvature="0"
                 id="path905"
                 d="m -114.896,61.252845 -84.78988,48.857285"
                 style="fill:none;stroke:#040000;stroke-width:0.26458332px;stroke-linecap:butt;stroke-linejoin:miter;stroke-opacity:1" />
              <path
                 inkscape:connector-curvature="0"
                 id="path907"
                 d="m -191.89872,50.92057 69.31419,69.2869"
                 style="fill:none;stroke:#040000;stroke-width:0.26458332px;stroke-linecap:butt;stroke-linejoin:miter;stroke-opacity:1" />
              <path
                 inkscape:connector-curvature="0"
                 id="path909"
                 d="m -200.05485,60.971694 85.35369,49.126616"
                 style="fill:none;stroke:#040000;stroke-width:0.26458332px;stroke-linecap:butt;stroke-linejoin:miter;stroke-opacity:1" />
              <path
                 inkscape:connector-curvature="0"
                 id="path911"
                 d="m -109.65014,72.897271 -94.69342,25.934604"
                 style="fill:none;stroke:#040000;stroke-width:0.26458332px;stroke-linecap:butt;stroke-linejoin:miter;stroke-opacity:1" />
              <path
                 inkscape:connector-curvature="0"
                 id="path913"
                 d="m -204.76282,72.878602 95.3043,25.624205"
                 style="fill:none;stroke:#040000;stroke-width:0.26458332px;stroke-linecap:butt;stroke-linejoin:miter;stroke-opacity:1" />
              <g
                 style="stroke:#040000;stroke-opacity:1"
                 transform="translate(-229.65849,-71.667701)"
                 id="g51">
                <path
                   style="fill:none;stroke:#040000;stroke-width:0.26458332px;stroke-linecap:butt;stroke-linejoin:miter;stroke-opacity:1"
                   d="m 34.517859,125.89611 c -13.397352,14.55346 -16.064418,42.61663 0,62.58116 v 0 c 14.811697,16.56139 43.74793,27.75282 69.554431,6.30033 2.11017,-1.75414 3.96712,-4.00531 6.02939,-6.20683 16.97222,-20.70737 14.91295,-43.65647 -0.28063,-62.76816"
                   id="path45"
                   inkscape:connector-curvature="0"
                   sodipodi:nodetypes="cccscc" />
                <path
                   style="fill:none;stroke:#040000;stroke-width:0.26458332px;stroke-linecap:butt;stroke-linejoin:miter;stroke-opacity:1"
                   d="m 34.517859,125.89611 c 22.696092,-24.87678 55.451157,-22.72399 75.303191,-0.0935"
                   id="path47"
                   inkscape:connector-curvature="0"
                   sodipodi:nodetypes="cc" />
              </g>
            </g>
            <path
               style="fill:#ff0000;stroke:#ff0000;stroke-width:0.35355338;stroke-opacity:1"
               d="m -489.51123,242.17889 -23.54278,-86.88141 1.3908,-0.42919 c 2.84275,-0.87726 12.31147,-2.95536 17.25408,-3.78675 7.03826,-1.1839 14.90636,-1.96562 22.34188,-2.21975 l 6.27557,-0.21447 v 90.21082 c 0,49.61596 -0.0398,90.20888 -0.0884,90.2065 -0.0486,-0.002 -10.68263,-39.10098 -23.63116,-86.88575 z"
               id="path968"
               inkscape:connector-curvature="0"
               transform="scale(0.26458333)" />
            <path
               style="fill:#00dfff;fill-opacity:1;stroke:#00dfff;stroke-width:0.35355338;stroke-opacity:1"
               d="m -464.49688,238.47092 -0.0361,-89.71417 2.91681,10e-4 c 7.94265,0.004 20.29937,1.43118 30.67076,3.54262 5.95044,1.21141 12.99914,2.93964 13.26192,3.25161 0.0794,0.0943 -45.74025,169.37615 -46.43953,171.57202 -0.21677,0.68066 -0.35071,-31.08063 -0.37387,-88.65351 z"
               id="path970"
               inkscape:connector-curvature="0"
               transform="scale(0.26458333)" />
            <path
               style="fill:#00ff00;stroke:#00ff00;stroke-width:0.35355338;stroke-opacity:1"
               d="m -463.74744,331.01352 c 0.41972,-1.69954 47.40355,-175.01805 47.46645,-175.09882 0.15086,-0.19377 12.63672,4.15716 16.97862,5.91651 10.40745,4.21714 26.17778,12.43222 25.79299,13.4361 -0.34844,0.90905 -89.65046,155.7235 -90.04343,156.09976 -0.25302,0.24227 -0.31429,0.13098 -0.19463,-0.35355 z"
               id="path972"
               inkscape:connector-curvature="0"
               transform="scale(0.26458333)" />
            <path
               style="fill:#ff6600;stroke:#ff6600;stroke-width:0.35355338;stroke-opacity:1"
               d="m -458.87612,326.49245 c 0,-0.15369 86.50161,-150.38952 86.83685,-150.81808 0.17035,-0.21778 11.01879,7.10876 15.51686,10.47938 5.78138,4.33227 12.4267,9.93521 16.73283,14.10812 l 3.58327,3.47243 -61.33491,61.4734 c -33.73419,33.81037 -61.3349,61.38851 -61.3349,61.28475 z"
               id="path974"
               inkscape:connector-curvature="0"
               transform="scale(0.26458333)" />
            <path
               style="fill:#ffd42a;stroke:#ffd42a;stroke-width:0.35355338;stroke-opacity:1"
               d="m -398.06494,267.5973 62.75573,-63.00302 5.09391,5.22686 c 3.34058,3.42777 6.70755,7.38266 9.78197,11.49003 4.40348,5.88297 10.93149,15.448 12.97811,19.0159 l 0.91262,1.59099 -76.70899,44.19418 c -42.18995,24.30679 -76.90252,44.2603 -77.13904,44.34113 -0.23652,0.0808 27.81004,-28.2044 62.32569,-62.85607 z"
               id="path976"
               inkscape:connector-curvature="0"
               transform="scale(0.26458333)" />
            <path
               style="fill:#0058d4;fill-opacity:1;stroke:#0058d4;stroke-width:0.35355338;stroke-opacity:1"
               d="m -462.76521,333.57156 c 0.0972,-0.10734 35.41041,-20.49598 78.47375,-45.30809 62.60983,-36.07436 78.38447,-45.02389 78.73373,-44.66851 0.94204,0.95857 7.64627,13.74113 10.30829,19.65422 4.47651,9.94357 8.88225,21.81274 8.29882,22.35721 -0.28059,0.26185 -172.55637,47.50466 -174.77501,47.92816 -0.66899,0.1277 -1.1368,0.14436 -1.03958,0.037 z"
               id="path978"
               inkscape:connector-curvature="0"
               transform="scale(0.26458333)" />
            <path
               style="fill:#e62ce5;fill-opacity:1;stroke:#e62ce5;stroke-width:0.35355338;stroke-opacity:1"
               d="m -455.34059,333.30223 c 1.75391,-0.6094 169.08483,-46.33758 169.18465,-46.23476 0.0563,0.058 0.74955,2.49191 1.54056,5.40873 3.09939,11.42874 5.20056,24.6843 5.59024,35.26695 l 0.21807,5.92202 -88.7087,-0.0279 c -50.678,-0.016 -88.32977,-0.15959 -87.82482,-0.33504 z"
               id="path980"
               inkscape:connector-curvature="0"
               transform="scale(0.26458333)" />
            <path
               style="fill:#e5ff80;stroke:#e5ff80;stroke-width:0.35355338;stroke-opacity:1"
               d="m -512.65246,250.49547 -44.40468,-76.45966 1.97952,-1.16788 c 4.24144,-2.50237 18.16907,-9.21938 23.54628,-11.35588 3.11127,-1.23619 8.20244,-3.08162 11.31371,-4.10095 4.99061,-1.63505 5.6886,-1.78538 5.92645,-1.27637 0.45634,0.97662 46.24893,170.20381 46.14292,170.52185 -0.0547,0.1642 -20.08163,-34.10829 -44.5042,-76.16111 z"
               id="path982"
               inkscape:connector-curvature="0"
               transform="scale(0.26458333)" />
            <path
               style="fill:#4cc031;fill-opacity:1;stroke:#9131c0;stroke-width:0.35355338;stroke-opacity:1"
               d="m -531.79283,266.91742 -63.87127,-63.89023 4.66599,-4.14827 c 6.4666,-5.74909 13.96666,-11.68516 20.14064,-15.94071 6.27534,-4.32541 11.97074,-7.9808 12.45607,-7.99449 0.33883,-0.01 90.8034,155.54037 90.58565,155.75812 -0.0582,0.0582 -28.84788,-28.6448 -63.97708,-63.78442 z"
               id="path984"
               inkscape:connector-curvature="0"
               transform="scale(0.26458333)" />
            <path
               style="fill:#a751c3;fill-opacity:1;stroke:#a751c3;stroke-width:0.35355338;stroke-opacity:1"
               d="m -548.5019,285.70609 c -42.77996,-24.62087 -77.8339,-44.80963 -77.89763,-44.86391 -0.18625,-0.15862 3.9792,-6.70188 7.12129,-11.18642 4.19092,-5.98148 9.57028,-12.31407 16.55974,-19.49416 l 6.13333,-6.30062 63.28569,63.3111 c 34.80713,34.82111 63.12676,63.30843 62.9325,63.30517 -0.19425,-0.003 -35.35496,-20.15029 -78.13492,-44.77116 z"
               id="path986"
               inkscape:connector-curvature="0"
               transform="scale(0.26458333)" />
            <path
               style="fill:#ef1d3f;fill-opacity:1;stroke:#ef1d3f;stroke-width:0.35355338;stroke-opacity:1"
               d="m -557.16396,309.07177 c -47.15519,-12.70409 -86.08348,-23.18666 -86.50732,-23.2946 l -0.77061,-0.19625 0.88367,-3.26987 c 2.44693,-9.05442 5.46225,-17.58414 9.19895,-26.02188 2.32805,-5.25692 6.627,-13.66853 7.15119,-13.99249 0.20246,-0.12513 116.54173,66.58051 156.13437,89.52303 0.47008,0.27239 0.52933,0.3998 0.17677,0.38009 -0.29168,-0.0163 -39.11184,-10.42393 -86.26702,-23.12803 z"
               id="path988"
               inkscape:connector-curvature="0"
               transform="scale(0.26458333)" />
            <path
               style="fill:#f5ff00;fill-opacity:1;stroke:#f5ff00;stroke-width:0.35355338;stroke-opacity:1"
               d="m -649.99975,327.74315 c 0.58277,-14.71219 2.03895,-26.66166 4.65645,-38.21093 0.57067,-2.51798 0.61303,-2.58422 1.51486,-2.36866 1.45123,0.34687 172.00411,46.1629 172.40117,46.31254 0.19446,0.0733 -39.95758,0.1458 -89.22675,0.16115 l -89.5803,0.0279 z"
               id="path990"
               inkscape:connector-curvature="0"
               transform="scale(0.26458333)" />
            <path
               style="fill:#e62ce5;fill-opacity:1;stroke:#e62ce5;stroke-width:0.35355338;stroke-opacity:1"
               d="m -643.39607,382.37062 c -0.18109,-0.47632 -0.96938,-3.71472 -1.75176,-7.19646 -2.52207,-11.22367 -4.12162,-22.7215 -4.48573,-32.2442 -0.1019,-2.66496 -0.25641,-5.52155 -0.34335,-6.34798 l -0.15807,-1.5026 90.94485,0.0107 c 51.81709,0.006 90.71668,0.14322 90.41451,0.31866 -0.40798,0.23687 -169.02478,46.53475 -173.32423,47.59042 -0.81013,0.19892 -1.02036,0.097 -1.29622,-0.62859 z"
               id="path992"
               inkscape:connector-curvature="0"
               transform="scale(0.26458333)" />
            <path
               style="fill:#0058d4;fill-opacity:1;stroke:#0058d4;stroke-width:0.35355338;stroke-opacity:1"
               d="m -629.02351,419.66703 c -4.98166,-9.75961 -8.57884,-18.50326 -11.93563,-29.0118 -1.01296,-3.17112 -1.75752,-5.8499 -1.65457,-5.95284 0.23577,-0.23578 167.59159,-46.08786 167.72596,-45.9535 0.14461,0.14461 -150.38255,86.84016 -150.77823,86.84016 -0.18409,0 -1.69498,-2.66491 -3.35753,-5.92202 z"
               id="path994"
               inkscape:connector-curvature="0"
               transform="scale(0.26458333)" />
            <path
               style="fill:#ff6600;fill-opacity:1;stroke:#ff6600;stroke-width:0.35355338;stroke-opacity:1"
               d="m -602.18162,458.11476 c -7.54708,-7.74988 -13.48516,-15.55951 -20.28085,-26.67295 -1.42128,-2.32431 -2.46473,-4.34509 -2.31878,-4.49063 0.31757,-0.31667 154.2625,-89.04337 154.49437,-89.04337 0.22212,0 -125.39158,126.01746 -125.73805,126.14221 -0.15341,0.0552 -2.92392,-2.61563 -6.15669,-5.93526 z"
               id="path996"
               inkscape:connector-curvature="0"
               transform="scale(0.26458333)" />
            <path
               style="fill:#00ff00;fill-opacity:1;stroke:#00ff00;stroke-width:0.35355338;stroke-opacity:1"
               d="m -562.00678,490.29434 c -10.46882,-6.47929 -20.27074,-13.77513 -29.86536,-22.22962 -1.68583,-1.4855 -3.03818,-2.79879 -3.0052,-2.91841 0.033,-0.11962 28.92094,-29.15519 64.1955,-64.52349 35.27455,-35.3683 64.03058,-64.01165 63.90228,-63.65189 -0.25149,0.70523 -89.60707,155.81798 -89.98194,156.20007 -0.12413,0.12651 -2.4845,-1.16799 -5.24528,-2.87666 z"
               id="path998"
               inkscape:connector-curvature="0"
               transform="scale(0.26458333)" />
            <path
               style="fill:#a0a0a0;stroke:none;stroke-width:0.35355338"
               d="m -519.70316,510.28465 c -3.02276,-1.02145 -8.03438,-2.87155 -11.13693,-4.11134 -5.96905,-2.38524 -23.45756,-10.92047 -24.194,-11.80782 -0.3605,-0.43437 6.96351,-13.35663 42.78718,-75.49241 23.77217,-41.23258 43.29182,-74.89864 43.37699,-74.81347 0.10663,0.10664 -44.25054,164.58996 -45.26534,167.85095 -0.0396,0.1272 -2.54514,-0.60446 -5.5679,-1.62591 z"
               id="path1000"
               inkscape:connector-curvature="0"
               transform="scale(0.26458333)" />
            <path
               style="fill:#ffd42a;fill-opacity:1;stroke:#ffd42a;stroke-width:0.35355338;stroke-opacity:1"
               d="m -601.57654,458.73468 c -2.69955,-2.77098 -6.63677,-7.18597 -8.74937,-9.81111 -5.65964,-7.03272 -15.04232,-21.42456 -14.35924,-22.02525 0.24345,-0.21408 13.92665,-8.13995 45.4241,-26.31148 84.02786,-48.47742 107.70421,-62.04258 107.9168,-61.82999 0.20346,0.20346 -122.66245,123.69028 -123.82861,124.45437 -0.4714,0.30888 -1.00071,0.5616 -1.17625,0.5616 -0.17553,0 -2.52787,-2.26717 -5.22743,-5.03814 z"
               id="path1002"
               inkscape:connector-curvature="0"
               transform="scale(0.26458333)" />
            <path
               style="fill:#ff6600;fill-opacity:1;stroke:#ff6600;stroke-width:0.35355338;stroke-opacity:1"
               d="m -561.67144,490.49186 c -10.00566,-6.11831 -23.49793,-16.17688 -30.49185,-22.73186 l -2.6492,-2.48294 8.90246,-9.14901 c 11.25015,-11.56174 119.02217,-119.23111 118.85183,-118.73863 -0.2231,0.64499 -29.96404,52.4077 -63.06772,109.76639 -10.15649,17.59812 -20.27565,35.1336 -22.48703,38.96775 -2.21137,3.83414 -4.18797,6.97635 -4.39244,6.98268 -0.20447,0.006 -2.30419,-1.17014 -4.66605,-2.61438 z"
               id="path1004"
               inkscape:connector-curvature="0"
               transform="scale(0.26458333)" />
            <path
               style="fill:#a0a0a0;stroke:none;stroke-width:0.35355338"
               d="m -515.42158,511.46735 c -0.47344,-0.18915 -1.07006,-0.26361 -1.32583,-0.16547 -0.25576,0.0982 -0.46502,0.051 -0.46502,-0.10469 0,-0.36289 -2.4959,-1.13762 -2.88676,-0.89605 -0.16237,0.10035 -0.29522,-0.003 -0.29522,-0.22979 0,-0.22673 -0.23865,-0.32067 -0.53033,-0.20874 -0.29168,0.11193 -0.53033,0.0644 -0.53033,-0.10571 0,-0.39554 -3.16864,-1.48634 -3.57968,-1.2323 -0.17017,0.10518 -0.30941,0.044 -0.30941,-0.13584 0,-0.28774 -4.2554,-1.99403 -5.64843,-2.26485 -0.28706,-0.0558 -0.74509,-0.30949 -1.01786,-0.56374 -0.27277,-0.25425 -0.7038,-0.38251 -0.95785,-0.28503 -0.25405,0.0975 -0.51195,0.0474 -0.57313,-0.1112 -0.16033,-0.41577 -17.1881,-8.46328 -17.41899,-8.23239 -0.10622,0.10622 -0.19313,-0.002 -0.19313,-0.24021 0,-0.23834 -0.1591,-0.33502 -0.35356,-0.21484 -0.19445,0.12018 -0.35355,0.0533 -0.35355,-0.14872 0,-0.20198 -0.6364,-0.6919 -1.41422,-1.08871 -0.77781,-0.39682 -1.41421,-0.90397 -1.41421,-1.127 0,-0.64072 3.62259,-7.31348 10.61672,-19.55588 3.55497,-6.22254 6.4654,-11.51258 6.46763,-11.75565 0.002,-0.24306 0.13256,-0.44194 0.28961,-0.44194 0.40195,0 1.38349,-1.98435 1.11457,-2.25327 -0.12188,-0.12188 -0.0507,-0.2216 0.15828,-0.2216 0.41758,0 3.85761,-5.94558 3.71544,-6.42158 -0.0486,-0.16276 0.0666,-0.29594 0.25609,-0.29594 0.44389,0 1.46537,-1.96138 1.17349,-2.25327 -0.12188,-0.12188 -0.0529,-0.2216 0.15341,-0.2216 0.41604,0 5.27492,-8.41452 5.13453,-8.89187 -0.0486,-0.16528 0.0539,-0.30052 0.2277,-0.30052 0.30738,0 5.06998,-8.13496 5.10622,-8.72189 0.01,-0.16154 0.30548,-0.60214 0.65667,-0.9791 0.60182,-0.64599 0.77761,-1.08547 0.6804,-1.70111 -0.023,-0.14584 0.10257,-0.26516 0.27909,-0.26516 0.34586,0 3.75452,-5.87469 3.52785,-6.08009 -0.0751,-0.068 0.22148,-0.50793 0.659,-0.97755 0.73432,-0.7882 0.84816,-1.03413 0.7653,-1.65328 -0.0166,-0.1241 0.12689,-0.32297 0.3189,-0.44194 0.48811,-0.30244 3.70625,-5.77611 3.71283,-6.3151 0.003,-0.24307 0.10368,-0.44194 0.2238,-0.44194 0.3312,0 1.51407,-2.12051 1.18634,-2.12674 -0.15683,-0.003 -0.0951,-0.12621 0.13709,-0.27385 0.53572,-0.34059 5.15702,-8.23223 5.16771,-8.82473 0.004,-0.24307 0.11781,-0.44194 0.25204,-0.44194 0.32309,0 5.04933,-8.18152 5.05491,-8.75045 0.002,-0.24307 0.11416,-0.44194 0.2484,-0.44194 0.32308,0 5.04932,-8.18151 5.0549,-8.75045 0.002,-0.24307 0.13283,-0.44194 0.28988,-0.44194 0.40194,0 1.38348,-1.98435 1.11456,-2.25327 -0.12188,-0.12188 -0.0499,-0.2216 0.15994,-0.2216 0.42202,0 3.74325,-5.56565 3.74325,-6.27288 0,-0.24455 0.1285,-0.44464 0.28555,-0.44464 0.15705,0 0.53237,-0.4773 0.83404,-1.06066 0.30166,-0.58336 0.43444,-1.06066 0.29505,-1.06066 -0.13938,0 -0.005,-0.19887 0.299,-0.44194 0.30383,-0.24307 3.77137,-6.01041 7.70564,-12.81631 3.93427,-6.8059 7.29581,-12.52551 7.4701,-12.71025 0.61322,-0.64996 0.29331,0.71245 -3.41375,14.53806 -2.05184,7.65246 -3.63344,14.0708 -3.51466,14.26299 0.11878,0.19219 0.0664,0.34943 -0.11649,0.34943 -0.40912,0 -1.22243,3.08943 -0.93551,3.55367 0.11401,0.18448 0.0582,0.33542 -0.12414,0.33542 -0.40734,0 -1.57616,4.50499 -1.28926,4.96921 0.11357,0.18375 0.0569,0.33409 -0.12596,0.33409 -0.40913,0 -1.22243,3.08943 -0.93552,3.55367 0.11402,0.18448 0.0577,0.33542 -0.12514,0.33542 -0.40913,0 -1.22243,3.08943 -0.93552,3.55367 0.11402,0.18447 0.0718,0.33541 -0.0938,0.33541 -0.38627,0 -1.23129,3.12582 -0.96256,3.56063 0.11165,0.18065 0.0675,0.32846 -0.0981,0.32846 -0.37037,0 -1.23671,3.11706 -0.98123,3.53043 0.10139,0.16405 0.0578,0.35163 -0.0969,0.41685 -0.39829,0.16794 -1.5485,4.51237 -1.30078,4.91319 0.11283,0.18255 0.0696,0.33192 -0.096,0.33192 -0.38628,0 -1.2313,3.12582 -0.96257,3.56063 0.11165,0.18065 0.0485,0.32846 -0.14034,0.32846 -0.32576,0 -0.96356,2.50463 -0.87782,3.44714 0.0221,0.24307 -0.0872,0.44194 -0.24299,0.44194 -0.24222,0 -0.82717,2.27464 -0.86375,3.35876 -0.007,0.19446 -0.10493,0.4331 -0.21859,0.53033 -0.33146,0.28353 -1.35783,4.7066 -1.16468,5.01912 0.0966,0.1563 0.0211,0.28418 -0.16771,0.28418 -0.32575,0 -0.96356,2.50463 -0.87782,3.44715 0.0221,0.24307 -0.0872,0.44194 -0.24298,0.44194 -0.23209,0 -0.69274,1.72324 -0.89786,3.35876 -0.0244,0.19445 -0.23172,0.81056 -0.46074,1.36914 -0.22902,0.55857 -0.47114,1.43362 -0.53805,1.94454 -0.0669,0.51093 -0.30555,1.38597 -0.53033,1.94455 -0.22477,0.55857 -0.45523,1.44081 -0.51213,1.96053 -0.0569,0.51972 -0.22191,1.13662 -0.3667,1.3709 -0.14479,0.23427 -0.16493,0.58505 -0.0447,0.7795 0.12018,0.19446 0.064,0.35355 -0.12483,0.35355 -0.2811,0 -0.7374,1.59981 -0.958,3.35876 -0.0244,0.19446 -0.23172,0.81057 -0.46074,1.36914 -0.22903,0.55858 -0.47115,1.43362 -0.53805,1.94455 -0.0669,0.51092 -0.30555,1.38597 -0.53033,1.94454 -0.22478,0.55858 -0.46343,1.43362 -0.53033,1.94455 -0.0669,0.51092 -0.30555,1.38596 -0.53033,1.94454 -0.22478,0.55857 -0.47403,1.51317 -0.55388,2.12132 -0.0799,0.60815 -0.18017,1.18528 -0.22292,1.28251 -0.0427,0.0972 -0.10821,0.33587 -0.1455,0.53033 -0.0373,0.19445 -0.25615,0.81314 -0.48637,1.37486 -0.23022,0.56172 -0.33596,1.10392 -0.23497,1.2049 0.10097,0.10099 0.0203,0.38037 -0.17929,0.62086 -0.1996,0.24049 -0.33162,0.57333 -0.2934,0.73964 0.0382,0.16631 -0.11877,0.75939 -0.34887,1.31797 -0.2301,0.55857 -0.47352,1.43362 -0.54093,1.94454 -0.0674,0.51092 -0.20903,1.1676 -0.3147,1.45929 -0.65318,1.803 -0.93021,2.94659 -0.77473,3.19816 0.0981,0.15868 0.0346,0.3773 -0.14093,0.48581 -0.26588,0.16432 -0.73189,1.74522 -0.94633,3.21032 -0.0285,0.19445 -0.14168,0.5922 -0.2516,0.88388 -0.62314,1.65355 -0.93905,2.94479 -0.78246,3.19816 0.0981,0.15868 0.006,0.39515 -0.20511,0.52548 -0.21089,0.13034 -0.29998,0.45443 -0.19799,0.72022 0.10199,0.26578 0.0513,0.56613 -0.11259,0.66744 -0.24853,0.15359 -0.71622,1.76992 -0.92512,3.1972 -0.0285,0.19446 -0.14168,0.59221 -0.2516,0.88389 -0.62314,1.65355 -0.93906,2.94479 -0.78246,3.19816 0.0981,0.15868 0.0346,0.3773 -0.14094,0.48581 -0.27536,0.17019 -0.83971,2.13628 -0.92149,3.21032 -0.0148,0.19445 -0.12333,0.51265 -0.24117,0.70711 -0.18974,0.31312 -0.7085,2.22082 -0.86527,3.18198 -0.0317,0.19445 -0.10025,0.51265 -0.1523,0.7071 -0.0521,0.19446 -0.12514,0.51266 -0.16243,0.70711 -0.0373,0.19445 -0.25518,0.81057 -0.4842,1.36914 -0.22902,0.55858 -0.47114,1.43362 -0.53804,1.94455 -0.0669,0.51092 -0.30556,1.38596 -0.53033,1.94454 -0.22478,0.55858 -0.46343,1.43362 -0.53033,1.94454 -0.0669,0.51093 -0.30556,1.38597 -0.53033,1.94455 -0.22478,0.55857 -0.46343,1.43362 -0.53033,1.94454 -0.0669,0.51092 -0.30556,1.38597 -0.53033,1.94454 -0.22478,0.55858 -0.46343,1.43362 -0.53033,1.94455 -0.12031,0.91875 -0.81549,2.8944 -1.00322,2.85108 -0.0534,-0.0123 -0.4845,-0.17716 -0.95794,-0.36631 z"
               id="path1006"
               inkscape:connector-curvature="0"
               transform="scale(0.26458333)" />
            <path
               style="fill:#00ff00;fill-opacity:1;stroke:#00ff00;stroke-width:0.35355338;stroke-opacity:1"
               d="m -515.59115,511.48717 c -0.5667,-0.16947 -1.16332,-0.22595 -1.32582,-0.12552 -0.1625,0.10043 -0.29546,0.0408 -0.29546,-0.13249 0,-0.38582 -2.47611,-1.18182 -2.88676,-0.92802 -0.16237,0.10035 -0.29522,-0.003 -0.29522,-0.22979 0,-0.22673 -0.23865,-0.32067 -0.53033,-0.20874 -0.29168,0.11193 -0.53033,0.0324 -0.53033,-0.17678 0,-0.20915 -0.23865,-0.2887 -0.53033,-0.17677 -0.29168,0.11193 -0.53033,0.065 -0.53033,-0.10437 0,-0.38406 -2.09846,-1.14001 -2.49106,-0.89737 -0.15868,0.0981 -0.39004,0.014 -0.51414,-0.18678 -0.1241,-0.20079 -0.37375,-0.27355 -0.55476,-0.16167 -0.18102,0.11187 -0.32913,0.0562 -0.32913,-0.12364 0,-0.28977 -3.19605,-1.61304 -4.59619,-1.90297 -0.29168,-0.0604 -0.63504,-0.25465 -0.76301,-0.43167 -0.12798,-0.17702 -0.52572,-0.34457 -0.88389,-0.37233 -0.35816,-0.0278 -1.08172,-0.33416 -1.60792,-0.68089 -0.5262,-0.34673 -1.10923,-0.53616 -1.29563,-0.42097 -0.1864,0.11521 -0.39227,0.0564 -0.45749,-0.13077 -0.13692,-0.39283 -14.01665,-7.0888 -14.694,-7.0888 -0.24783,0 -0.4506,-0.16849 -0.4506,-0.37442 0,-0.20593 -0.1591,-0.27609 -0.35356,-0.15591 -0.19445,0.12018 -0.35355,0.0793 -0.35355,-0.0908 0,-0.17013 -0.6364,-0.66699 -1.41422,-1.10415 -0.77781,-0.43716 -1.41421,-0.94772 -1.41421,-1.13459 0,-0.6013 2.45455,-5.24905 7.172,-13.58036 2.53244,-4.47245 4.60639,-8.3306 4.60878,-8.57367 0.002,-0.24307 0.12238,-0.44194 0.26666,-0.44194 0.31171,0 4.55543,-7.47097 4.82137,-8.48792 0.10132,-0.38746 0.32068,-0.70447 0.48746,-0.70447 0.16678,0 0.55006,-0.4773 0.85173,-1.06066 0.30167,-0.58336 0.45866,-1.06066 0.34886,-1.06066 -0.10979,0 0.085,-0.3088 0.43286,-0.68623 0.34787,-0.37742 1.26889,-1.91981 2.04671,-3.42754 0.77782,-1.50772 1.69263,-3.05855 2.03293,-3.4463 0.57221,-0.65199 0.66936,-0.90034 0.58852,-1.5044 -0.0166,-0.1241 0.12135,-0.32297 0.30657,-0.44194 0.46996,-0.30185 5.02693,-8.23502 5.02693,-8.75131 0,-0.23193 0.13851,-0.47471 0.3078,-0.53954 0.34372,-0.13159 4.9955,-8.06568 4.9955,-8.52032 0,-0.15903 0.3182,-0.63069 0.70711,-1.04814 0.38891,-0.41745 0.7071,-0.97429 0.7071,-1.23743 0,-0.26315 0.27843,-0.7806 0.61872,-1.1499 0.3403,-0.3693 1.25512,-1.90503 2.03293,-3.41275 0.77782,-1.50773 1.69264,-3.05856 2.03294,-3.4463 0.34029,-0.38775 0.61871,-0.97994 0.61871,-1.31598 0,-0.33603 0.13515,-0.664 0.30033,-0.72883 0.41462,-0.1627 3.58876,-5.65457 3.58876,-6.20925 0,-0.24713 0.1248,-0.44933 0.27733,-0.44933 0.36982,0 1.61101,-2.11979 1.24526,-2.12674 -0.15683,-0.003 -0.10742,-0.1223 0.10981,-0.26516 0.51397,-0.33803 5.08512,-8.24385 5.08512,-8.79476 0,-0.23192 0.14883,-0.47471 0.33074,-0.53953 0.41896,-0.14928 4.97256,-8.06497 4.97256,-8.64398 0,-0.23681 0.14883,-0.48359 0.33074,-0.54841 0.4319,-0.15389 4.97256,-8.07399 4.97256,-8.67344 0,-0.25301 0.1248,-0.46002 0.27732,-0.46002 0.36982,0 1.61102,-2.11979 1.24527,-2.12673 -0.15684,-0.003 -0.10188,-0.12231 0.12213,-0.26517 0.53398,-0.34055 3.76404,-5.78695 3.77103,-6.35855 0.003,-0.24307 0.10368,-0.44194 0.2238,-0.44194 0.3312,0 1.51407,-2.12051 1.18634,-2.12673 -0.15684,-0.003 -0.10179,-0.12231 0.12231,-0.26517 0.54421,-0.34692 5.19046,-8.24348 5.19046,-8.82147 0,-0.24964 0.11747,-0.45389 0.26104,-0.45389 0.14357,0 0.6959,-0.75572 1.22742,-1.67938 5.47335,-9.51152 8.80357,-14.99747 8.91011,-14.67784 0.0709,0.2128 -0.7612,3.74641 -1.8492,7.85246 -1.08799,4.10606 -1.88283,7.61983 -1.7663,7.80838 0.11654,0.18855 0.0627,0.34283 -0.11955,0.34283 -0.40734,0 -1.57616,4.50499 -1.28926,4.9692 0.11356,0.18375 0.0569,0.3341 -0.12597,0.3341 -0.40912,0 -1.22243,3.08943 -0.93551,3.55367 0.11401,0.18448 0.0528,0.33541 -0.13605,0.33541 -0.32575,0 -0.96356,2.50463 -0.87782,3.44715 0.0221,0.24307 -0.0835,0.44194 -0.23471,0.44194 -0.2514,0 -0.79508,1.90154 -0.90979,3.18198 -0.0261,0.29168 -0.21842,0.94807 -0.42731,1.45864 -0.6746,1.64884 -1.17525,3.85165 -0.95602,4.20637 0.11741,0.18997 0.0627,0.3454 -0.12161,0.3454 -0.3001,0 -0.84502,1.78766 -0.96993,3.18198 -0.0261,0.29168 -0.23335,0.98734 -0.4605,1.54592 -0.22714,0.55857 -0.46772,1.43362 -0.53463,1.94454 -0.0669,0.51093 -0.30555,1.38597 -0.53033,1.94455 -0.22478,0.55857 -0.46342,1.43362 -0.53033,1.94454 -0.0669,0.51092 -0.30555,1.38597 -0.53033,1.94454 -0.22478,0.55858 -0.46342,1.43362 -0.53033,1.94455 -0.0669,0.51092 -0.28181,1.3267 -0.47757,1.81284 -0.3466,0.86074 -0.84195,2.82037 -0.98307,3.88908 -0.0385,0.29168 -0.2551,0.98735 -0.48131,1.54592 -0.2262,0.55858 -0.46602,1.43362 -0.53292,1.94455 -0.0669,0.51092 -0.30556,1.38596 -0.53033,1.94454 -0.22478,0.55857 -0.46343,1.43362 -0.53033,1.94454 -0.0669,0.51093 -0.30556,1.38597 -0.53033,1.94455 -0.22478,0.55857 -0.46343,1.43362 -0.53033,1.94454 -0.0669,0.51092 -0.28181,1.3267 -0.47757,1.81284 -0.34661,0.86074 -0.84196,2.82037 -0.98307,3.88909 -0.0385,0.29168 -0.2551,0.98734 -0.48131,1.54591 -0.2262,0.55858 -0.46602,1.43362 -0.53292,1.94455 -0.0669,0.51092 -0.30556,1.38597 -0.53034,1.94454 -0.22477,0.55858 -0.46342,1.43362 -0.53033,1.94455 -0.0669,0.51092 -0.30555,1.38596 -0.53033,1.94454 -0.22477,0.55857 -0.45523,1.44081 -0.51213,1.96053 -0.0569,0.51972 -0.19808,1.09806 -0.31374,1.2852 -0.11566,0.18715 -0.33688,0.97544 -0.4916,1.75178 -0.34754,1.74379 -0.3778,1.87749 -0.49964,2.20702 -0.0539,0.14584 -0.12856,0.42426 -0.16585,0.61871 -0.0373,0.19446 -0.25517,0.81057 -0.48419,1.36915 -0.22903,0.55857 -0.47156,1.43362 -0.53898,1.94454 -0.0674,0.51092 -0.20903,1.1676 -0.3147,1.45929 -0.65318,1.803 -0.9302,2.94659 -0.77472,3.19816 0.0981,0.15868 0.0346,0.3773 -0.14094,0.48581 -0.27536,0.17019 -0.83972,2.13628 -0.9215,3.21032 -0.0148,0.19445 -0.12333,0.51265 -0.24116,0.7071 -0.11783,0.19446 -0.31519,0.83085 -0.43856,1.41422 -0.65676,3.10542 -0.69777,3.26591 -1.03876,4.06586 -0.12433,0.29168 -0.27229,0.84853 -0.32879,1.23744 -0.0565,0.38891 -0.22684,0.90598 -0.37854,1.14905 -0.15169,0.24306 -0.18427,0.59004 -0.0724,0.77106 0.11188,0.18102 0.0598,0.41791 -0.11583,0.52643 -0.27537,0.17018 -0.83972,2.13628 -0.9215,3.21031 -0.0148,0.19446 -0.12759,0.51387 -0.25064,0.7098 -0.28591,0.45527 -0.75821,2.94651 -0.5911,3.11782 0.0695,0.0713 -0.0582,0.35289 -0.2839,0.62585 -0.22567,0.27295 -0.53669,1.13268 -0.69116,1.91049 -0.34589,1.74172 -0.37691,1.87902 -0.49918,2.20971 -0.0539,0.14584 -0.12897,0.42427 -0.16676,0.61872 -0.0378,0.19445 -0.1708,0.5922 -0.29559,0.88388 -0.12478,0.29169 -0.2731,0.84853 -0.32961,1.23744 -0.0565,0.38891 -0.23338,0.91657 -0.39307,1.17257 -0.15968,0.25601 -0.19624,0.55957 -0.0812,0.67458 0.11501,0.11501 0.0663,0.38285 -0.10814,0.59519 -0.17449,0.21235 -0.41793,0.94293 -0.54099,1.62352 -0.30538,1.68903 -0.3595,1.89114 -0.61608,2.3008 -0.17673,0.28217 -0.69715,2.44613 -0.80711,3.35606 -0.0117,0.0972 -0.12381,0.33709 -0.24902,0.53302 -0.21686,0.33936 -0.73025,2.68553 -0.71347,3.26055 0.004,0.14976 -0.11925,0.43139 -0.27472,0.62585 -0.15546,0.19445 -0.38327,0.83085 -0.50623,1.41421 -0.62267,2.95413 -0.67948,3.18259 -1.01098,4.06586 -0.62594,1.66779 -0.9381,2.94501 -0.78165,3.19817 0.0981,0.15868 0.0346,0.37729 -0.14093,0.48581 -0.26588,0.16432 -0.73189,1.74522 -0.94632,3.21031 -0.0285,0.19446 -0.14169,0.59221 -0.25161,0.88389 -0.62314,1.65355 -0.93905,2.94479 -0.78246,3.19816 0.0981,0.15868 0.0346,0.3773 -0.14093,0.48581 -0.26608,0.16445 -0.73777,1.76615 -0.94541,3.21032 -0.0705,0.4902 -0.82897,2.30489 -0.94784,2.26771 -0.0534,-0.0167 -0.5608,-0.16905 -1.12751,-0.33852 z"
               id="path1010"
               inkscape:connector-curvature="0"
               transform="scale(0.26458333)" />
            <path
               style="fill:#00dfff;fill-opacity:1;stroke:#00dfff;stroke-width:0.35355338;stroke-opacity:1"
               d="m -472.48793,519.61507 c -11.8167,-0.68489 -24.89185,-2.85021 -36.50195,-6.04494 -2.44187,-0.67192 -3.95895,-1.25955 -3.86788,-1.49819 0.0824,-0.21595 10.59779,-38.97415 23.36749,-86.12934 12.76971,-47.15518 23.27831,-85.89579 23.35245,-86.09025 0.0741,-0.19445 0.14737,40.25648 0.16272,89.89095 l 0.0279,90.2445 -0.97227,-0.0532 c -0.53475,-0.0292 -3.04056,-0.17304 -5.56847,-0.31956 z"
               id="path1012"
               inkscape:connector-curvature="0"
               transform="scale(0.26458333)" />
            <path
               style="fill:#ff0000;fill-opacity:1;stroke:#ff0000;stroke-width:0.35355338;stroke-opacity:1"
               d="m -464.49196,429.92008 c 0.0226,-49.53725 0.11256,-89.82908 0.20002,-89.5374 0.0874,0.29168 10.69596,39.35049 23.57446,86.79736 15.47825,57.02482 23.28658,86.34816 23.03525,86.50638 -0.63223,0.398 -7.18675,1.98274 -12.77358,3.08837 -9.04616,1.79023 -22.86437,3.20629 -31.33713,3.21137 l -2.74003,0.002 z"
               id="path1014"
               inkscape:connector-curvature="0"
               transform="scale(0.26458333)" />
            <path
               style="fill:#e5ff80;fill-opacity:1;stroke:#e5ff80;stroke-width:0.35355338;stroke-opacity:1"
               d="m -416.09616,513.08242 c 0,-0.11074 -10.5914,-39.26733 -23.53644,-87.01466 -12.94504,-47.74732 -23.46598,-86.88377 -23.37985,-86.9699 0.17614,-0.17614 90.0498,154.51459 90.0498,154.9939 0,0.79478 -15.44913,8.81491 -23.86485,12.38899 -6.76907,2.87477 -19.26866,7.15727 -19.26866,6.60167 z"
               id="path1016"
               inkscape:connector-curvature="0"
               transform="scale(0.26458333)" />
            <path
               style="fill:#4cc031;fill-opacity:1;stroke:#4cc031;stroke-width:0.35355338;stroke-opacity:1"
               d="m -372.03282,492.6753 c -1.82991,-2.90935 -88.2564,-152.05803 -88.16521,-152.14922 0.0629,-0.0629 28.15721,27.92893 62.43187,62.204 l 62.31755,62.3183 -4.54644,4.43283 c -7.3701,7.18592 -19.21699,16.2766 -30.04296,23.05339 l -1.49478,0.9357 z"
               id="path1018"
               inkscape:connector-curvature="0"
               transform="scale(0.26458333)" />
            <path
               style="fill:#a751c3;fill-opacity:1;stroke:#a751c3;stroke-width:0.35355338;stroke-opacity:1"
               d="m -397.71138,401.01709 c -34.51524,-34.51565 -62.62191,-62.75573 -62.45926,-62.75573 0.36152,0 153.32303,87.97241 153.93422,88.53185 0.64503,0.59041 -7.60862,12.81093 -14.70789,21.77681 -2.74115,3.46188 -13.38944,15.2028 -13.78801,15.2028 -0.12325,0 -28.46382,-28.24008 -62.97906,-62.75573 z"
               id="path1020"
               inkscape:connector-curvature="0"
               transform="scale(0.26458333)" />
            <path
               style="fill:#ef1d3f;fill-opacity:1;stroke:none;stroke-width:0.35355338"
               d="m -371.0181,359.11146 c -46.8635,-12.61447 -86.00186,-23.16932 -86.97414,-23.45522 -1.56709,-0.46081 8.51319,-0.52306 88.80068,-0.54834 l 90.56844,-0.0285 -0.16801,4.86136 c -0.35821,10.36426 -1.53875,20.31205 -3.51393,29.6101 -1.08824,5.12278 -3.05991,12.56175 -3.31934,12.52358 -0.10303,-0.0152 -38.5302,-10.34849 -85.3937,-22.96296 z"
               id="path1022"
               inkscape:connector-curvature="0"
               transform="scale(0.26458333)" />
            <path
               style="fill:#ef1d3f;fill-opacity:1;stroke:#ef1d3f;stroke-width:0.35355338;stroke-opacity:1"
               d="m -382.41566,381.30937 c -42.24272,-24.32958 -76.74717,-44.29336 -76.67656,-44.36397 0.13373,-0.13373 172.80781,46.20852 173.08448,46.45239 0.56574,0.49868 -5.7582,16.83224 -9.7648,25.2207 -3.19976,6.69919 -8.93531,16.97864 -9.45666,16.94852 -0.20984,-0.0121 -34.94375,-19.92806 -77.18646,-44.25764 z"
               id="path1024"
               inkscape:connector-curvature="0"
               transform="scale(0.26458333)" />
            <path
               style="fill:#f5ff00;fill-opacity:1;stroke:#f5ff00;stroke-width:0.35355338;stroke-opacity:1"
               d="m -315.51022,373.93218 c -15.7508,-4.26239 -53.77547,-14.51459 -84.49926,-22.78266 -30.72379,-8.26807 -56.17333,-15.16021 -56.55454,-15.31585 -0.70407,-0.28747 90.02161,-0.75395 146.67791,-0.75417 l 31.07996,-1.2e-4 -0.22443,5.94432 c -0.44679,11.83388 -2.03652,23.15208 -4.77659,34.00721 -1.43282,5.67635 -1.74446,6.54803 -2.35812,6.59591 -0.38891,0.0303 -13.59413,-3.43225 -29.34493,-7.69464 z"
               id="path1026"
               inkscape:connector-curvature="0"
               transform="scale(0.26458333)" />
          </g>
          <g
             id="g1139">
            <path
               style="fill:#000000;fill-rule:evenodd;stroke-width:0.26458332"
               id="path1081"
               sodipodi:type="arc"
               sodipodi:cx="-39.536282"
               sodipodi:cy="159.71822"
               sodipodi:rx="4.5526814"
               sodipodi:ry="4.277699"
               sodipodi:start="5.9970211"
               sodipodi:end="5.9969688"
               d="m -35.168741,158.51073 a 4.5526814,4.277699 0 0 1 -3.082378,5.31121 4.5526814,4.277699 0 0 1 -5.65267,-2.89613 4.5526814,4.277699 0 0 1 3.08223,-5.31129 4.5526814,4.277699 0 0 1 5.652751,2.896 l -4.367474,1.2077 z" />
            <path
               d="m -35.421152,158.5763 a 4.2550592,4.046021 0 0 1 -2.880874,5.02355 4.2550592,4.046021 0 0 1 -5.283138,-2.73928 4.2550592,4.046021 0 0 1 2.880735,-5.02363 4.2550592,4.046021 0 0 1 5.283214,2.73915 l -4.081959,1.14229 z"
               sodipodi:end="5.9969688"
               sodipodi:start="5.9970211"
               sodipodi:ry="4.046021"
               sodipodi:rx="4.2550592"
               sodipodi:cy="159.71838"
               sodipodi:cx="-39.503174"
               sodipodi:type="arc"
               id="path1083"
               style="fill:#e6e6e6;fill-rule:evenodd;stroke-width:0.24876578" />
            <text
               xml:space="preserve"
               style="font-style:normal;font-variant:normal;font-weight:normal;font-stretch:normal;font-size:3.17499995px;line-height:1.25;font-family:sans-serif;-inkscape-font-specification:'sans-serif, Normal';font-variant-ligatures:normal;font-variant-caps:normal;font-variant-numeric:normal;text-align:start;letter-spacing:0px;word-spacing:0px;writing-mode:lr-tb;text-anchor:start;fill:#0000ff;fill-opacity:1;stroke:none;stroke-width:0.26458332"
               id="text1095"
               transform="translate(-0.65481033,-0.11693042)"><textPath
                 xlink:href="#path1105"
                 id="textPath1118"><tspan
   style="font-size:2.11666656px;fill:#0000ff;stroke-width:0.26458332"
   id="tspan1093">SPIN</tspan></textPath></text>
            <path
               style="fill:none;stroke:#000000;stroke-width:0.26458332px;stroke-linecap:butt;stroke-linejoin:miter;stroke-opacity:0"
               d="m -38.265364,157.65859 c 2.031001,1.6796 1.655644,3.30323 -0.09922,4.89479 v 0"
               id="path205"
               inkscape:connector-curvature="0"
               sodipodi:nodetypes="ccc" />
            <text
               transform="rotate(-180,-39.244279,159.80225)"
               id="text1125"
               style="font-style:normal;font-variant:normal;font-weight:normal;font-stretch:normal;font-size:3.17499995px;line-height:1.25;font-family:sans-serif;-inkscape-font-specification:'sans-serif, Normal';font-variant-ligatures:normal;font-variant-caps:normal;font-variant-numeric:normal;text-align:start;letter-spacing:0px;word-spacing:0px;writing-mode:lr-tb;text-anchor:start;fill:#ff0000;fill-opacity:1;stroke:none;stroke-width:0.26458332"
               xml:space="preserve"><textPath
                 id="textPath1123"
                 xlink:href="#path1105"><tspan
   id="tspan1121"
   style="font-size:2.11666656px;fill:#ff0000;stroke-width:0.26458332">SPIN</tspan></textPath></text>
            <path
               style="fill:#000000;fill-rule:evenodd;stroke-width:0.26458332"
               id="path1127"
               sodipodi:type="arc"
               sodipodi:cx="-39.534172"
               sodipodi:cy="159.74747"
               sodipodi:rx="0.71327555"
               sodipodi:ry="0.68988943"
               sodipodi:start="5.9970211"
               sodipodi:end="5.9969688"
               d="m -38.849903,159.55273 a 0.71327555,0.68988943 0 0 1 -0.482921,0.85657 0.71327555,0.68988943 0 0 1 -0.885612,-0.46708 0.71327555,0.68988943 0 0 1 0.482898,-0.85658 0.71327555,0.68988943 0 0 1 0.885625,0.46705 l -0.684259,0.19478 z" />
          </g>
        </g>
        <text
           xml:space="preserve"
           style="font-style:normal;font-variant:normal;font-weight:normal;font-stretch:normal;font-size:6.42612171px;line-height:1.25;font-family:sans-serif;-inkscape-font-specification:sans-serif;font-variant-ligatures:normal;font-variant-caps:normal;font-variant-numeric:normal;text-align:start;letter-spacing:0px;word-spacing:0px;writing-mode:lr-tb;text-anchor:start;fill:#000000;fill-opacity:1;stroke:none;stroke-width:0.29209644"
           x="-97.093895"
           y="139.69968"
           id="text1212"
           transform="matrix(1.0322679,-0.14006299,0.16013857,0.94701238,0,0)"><tspan
             sodipodi:role="line"
             id="tspan1210"
             x="-97.093895"
             y="139.69968"
             style="font-style:normal;font-variant:normal;font-weight:bold;font-stretch:normal;font-size:5.29166651px;font-family:sans-serif;-inkscape-font-specification:'sans-serif Bold';stroke-width:0.29209644">WASH CLOTHES</tspan></text>
        <text
           xml:space="preserve"
           style="font-style:normal;font-variant:normal;font-weight:bold;font-stretch:normal;font-size:5.82083321px;line-height:1.25;font-family:sans-serif;-inkscape-font-specification:'sans-serif Bold';font-variant-ligatures:normal;font-variant-caps:normal;font-variant-numeric:normal;text-align:start;letter-spacing:0px;word-spacing:0px;writing-mode:lr-tb;text-anchor:start;fill:#000000;fill-opacity:1;stroke:none;stroke-width:0.26458332"
           x="196.21506"
           y="-57.041348"
           id="text4929"
           transform="rotate(143.74521)"><tspan
             sodipodi:role="line"
             id="tspan4927"
             x="196.21506"
             y="-57.041348"
             style="stroke-width:0.26458332">SWEEP HOUSE</tspan></text>
        <text
           xml:space="preserve"
           style="font-style:normal;font-variant:normal;font-weight:bold;font-stretch:normal;font-size:5.82083321px;line-height:1.25;font-family:sans-serif;-inkscape-font-specification:'sans-serif Bold';font-variant-ligatures:normal;font-variant-caps:normal;font-variant-numeric:normal;text-align:start;letter-spacing:0px;word-spacing:0px;writing-mode:lr-tb;text-anchor:start;fill:#000000;fill-opacity:1;stroke:none;stroke-width:0.26458332"
           x="-125.08903"
           y="99.348274"
           id="text4933"
           transform="rotate(-22.412327)"><tspan
             sodipodi:role="line"
             id="tspan4931"
             x="-125.08903"
             y="99.348274"
             style="stroke-width:0.26458332">SWEEP PORCH</tspan></text>
        <text
           xml:space="preserve"
           style="font-style:normal;font-variant:normal;font-weight:bold;font-stretch:normal;font-size:5.82083321px;line-height:1.25;font-family:sans-serif;-inkscape-font-specification:'sans-serif Bold';font-variant-ligatures:normal;font-variant-caps:normal;font-variant-numeric:normal;text-align:start;letter-spacing:0px;word-spacing:0px;writing-mode:lr-tb;text-anchor:start;fill:#000000;fill-opacity:1;stroke:none;stroke-width:0.26458332"
           x="209.85738"
           y="42.782711"
           id="text4937"
           transform="rotate(111.88253)"><tspan
             sodipodi:role="line"
             id="tspan4935"
             x="209.85738"
             y="42.782711"
             style="stroke-width:0.26458332">BATHROOM</tspan></text>
        <text
           xml:space="preserve"
           style="font-style:normal;font-variant:normal;font-weight:bold;font-stretch:normal;font-size:5.82083321px;line-height:1.25;font-family:sans-serif;-inkscape-font-specification:'sans-serif Bold';font-variant-ligatures:normal;font-variant-caps:normal;font-variant-numeric:normal;text-align:start;letter-spacing:0px;word-spacing:0px;writing-mode:lr-tb;text-anchor:start;fill:#000000;fill-opacity:1;stroke:none;stroke-width:0.26458332"
           x="176.77306"
           y="-94.596207"
           id="text4941"
           transform="rotate(157.47398)"><tspan
             sodipodi:role="line"
             id="tspan4939"
             x="176.77306"
             y="-94.596207"
             style="stroke-width:0.26458332"> WASH DISHES</tspan></text>
        <text
           xml:space="preserve"
           style="font-style:normal;font-variant:normal;font-weight:bold;font-stretch:normal;font-size:5.82083321px;line-height:1.25;font-family:sans-serif;-inkscape-font-specification:'sans-serif Bold';font-variant-ligatures:normal;font-variant-caps:normal;font-variant-numeric:normal;text-align:start;letter-spacing:0px;word-spacing:0px;writing-mode:lr-tb;text-anchor:start;fill:#000000;fill-opacity:1;stroke:none;stroke-width:0.26458332"
           x="156.09831"
           y="-125.60349"
           id="text4945"
           transform="rotate(170.58563)"><tspan
             sodipodi:role="line"
             id="tspan4943"
             x="156.09831"
             y="-125.60349"
             style="stroke-width:0.26458332">MOP FLOORS</tspan></text>
        <text
           xml:space="preserve"
           style="font-style:normal;font-variant:normal;font-weight:bold;font-stretch:normal;font-size:5.29166651px;line-height:1.25;font-family:sans-serif;-inkscape-font-specification:'sans-serif Bold';font-variant-ligatures:normal;font-variant-caps:normal;font-variant-numeric:normal;text-align:start;letter-spacing:0px;word-spacing:0px;writing-mode:lr-tb;text-anchor:start;fill:#000000;fill-opacity:1;stroke:none;stroke-width:0.26458332"
           x="30.087973"
           y="181.10428"
           id="text4949"
           transform="rotate(37.725337)"><tspan
             sodipodi:role="line"
             id="tspan4947"
             x="30.087973"
             y="181.10428"
             style="font-size:5.29166651px;stroke-width:0.26458332">DUST FURNITURE</tspan></text>
        <text
           xml:space="preserve"
           style="font-style:normal;font-variant:normal;font-weight:bold;font-stretch:normal;font-size:5.29166651px;line-height:1.25;font-family:sans-serif;-inkscape-font-specification:'sans-serif Bold';font-variant-ligatures:normal;font-variant-caps:normal;font-variant-numeric:normal;text-align:start;letter-spacing:0px;word-spacing:0px;writing-mode:lr-tb;text-anchor:start;fill:#000000;fill-opacity:1;stroke:none;stroke-width:0.26458332"
           x="109.83102"
           y="160.4189"
           id="text4953"
           transform="rotate(64.191649)"><tspan
             sodipodi:role="line"
             id="tspan4951"
             x="109.83102"
             y="160.4189"
             style="font-size:5.29166651px;stroke-width:0.26458332">TAKE OUT TRASH</tspan></text>
        <text
           xml:space="preserve"
           style="font-style:normal;font-variant:normal;font-weight:bold;font-stretch:normal;font-size:5.82083321px;line-height:1.25;font-family:sans-serif;-inkscape-font-specification:'sans-serif Bold';font-variant-ligatures:normal;font-variant-caps:normal;font-variant-numeric:normal;text-align:start;letter-spacing:0px;word-spacing:0px;writing-mode:lr-tb;text-anchor:start;fill:#000000;fill-opacity:1;stroke:none;stroke-width:0.26458332"
           x="0.58051944"
           y="167.85381"
           id="text4957"
           transform="matrix(0.89083165,0.32028054,-0.45433355,0.9592001,0,0)"><tspan
             sodipodi:role="line"
             id="tspan4955"
             x="0.58051944"
             y="167.85381"
             style="stroke-width:0.26458332">ANIMAL CARE</tspan></text>
        <text
           xml:space="preserve"
           style="font-style:normal;font-variant:normal;font-weight:bold;font-stretch:normal;font-size:5.82083321px;line-height:1.25;font-family:sans-serif;-inkscape-font-specification:'sans-serif Bold';font-variant-ligatures:normal;font-variant-caps:normal;font-variant-numeric:normal;text-align:start;letter-spacing:0px;word-spacing:0px;writing-mode:lr-tb;text-anchor:start;fill:#000000;fill-opacity:1;stroke:none;stroke-width:0.26458332"
           x="-61.209534"
           y="161.50676"
           id="text4961"
           transform="rotate(7.6431845)"><tspan
             sodipodi:role="line"
             id="tspan4959"
             x="-61.209534"
             y="161.50676"
             style="font-size:5.29166651px;stroke-width:0.26458332">SET/CLEAR TABLE</tspan></text>
        <text
           xml:space="preserve"
           style="font-style:normal;font-variant:normal;font-weight:bold;font-stretch:normal;font-size:5.29166651px;line-height:1.25;font-family:sans-serif;-inkscape-font-specification:'sans-serif Bold';font-variant-ligatures:normal;font-variant-caps:normal;font-variant-numeric:normal;text-align:start;letter-spacing:0px;word-spacing:0px;writing-mode:lr-tb;text-anchor:start;fill:#000000;fill-opacity:1;stroke:none;stroke-width:0.26458332"
           x="152.95065"
           y="123.22987"
           id="text4965"
           transform="rotate(82.533329)"><tspan
             sodipodi:role="line"
             id="tspan4963"
             x="152.95065"
             y="123.22987"
             style="font-size:5.29166651px;stroke-width:0.26458332">PARENT'S CHOICE</tspan></text>
        <text
           xml:space="preserve"
           style="font-style:normal;font-variant:normal;font-weight:bold;font-stretch:normal;font-size:5.82083321px;line-height:1.25;font-family:sans-serif;-inkscape-font-specification:'sans-serif Bold';font-variant-ligatures:normal;font-variant-caps:normal;font-variant-numeric:normal;text-align:start;letter-spacing:0px;word-spacing:0px;writing-mode:lr-tb;text-anchor:start;fill:#000000;fill-opacity:1;stroke:none;stroke-width:0.26458332"
           x="79.403847"
           y="177.5722"
           id="text4969"
           transform="rotate(50.095894)"><tspan
             sodipodi:role="line"
             id="tspan4967"
             x="79.403847"
             y="177.5722"
             style="stroke-width:0.26458332">FREE SPACE!</tspan></text>
        <text
           xml:space="preserve"
           style="font-style:normal;font-variant:normal;font-weight:bold;font-stretch:normal;font-size:5.29166651px;line-height:1.25;font-family:sans-serif;-inkscape-font-specification:'sans-serif Bold';font-variant-ligatures:normal;font-variant-caps:normal;font-variant-numeric:normal;text-align:start;letter-spacing:0px;word-spacing:0px;writing-mode:lr-tb;text-anchor:start;fill:#000000;fill-opacity:1;stroke:none;stroke-width:0.26458332"
           x="178.7901"
           y="89.0196"
           id="text4973"
           transform="rotate(96.258961)"><tspan
             sodipodi:role="line"
             id="tspan4971"
             x="178.7901"
             y="89.0196"
             style="font-size:5.29166651px;stroke-width:0.26458332">CLEAN WINDOWS</tspan></text>
        <text
           xml:space="preserve"
           style="font-style:normal;font-variant:normal;font-weight:bold;font-stretch:normal;font-size:5.82083321px;line-height:1.25;font-family:sans-serif;-inkscape-font-specification:'sans-serif Bold';font-variant-ligatures:normal;font-variant-caps:normal;font-variant-numeric:normal;text-align:start;letter-spacing:0px;word-spacing:0px;writing-mode:lr-tb;text-anchor:start;fill:#000000;fill-opacity:1;stroke:none;stroke-width:0.26458332"
           x="133.19814"
           y="-153.3223"
           id="text4977"
           transform="rotate(-174.26651)"
           inkscape:transform-center-x="-0.52916667"
           inkscape:transform-center-y="2.6458334"><tspan
             sodipodi:role="line"
             id="tspan4975"
             x="133.19814"
             y="-153.3223"
             style="stroke-width:0.26458332">VACUUM</tspan></text>
        <text
           xml:space="preserve"
           style="font-style:normal;font-variant:normal;font-weight:bold;font-stretch:normal;font-size:5.82083321px;line-height:1.25;font-family:sans-serif;-inkscape-font-specification:'sans-serif Bold';font-variant-ligatures:normal;font-variant-caps:normal;font-variant-numeric:normal;text-align:start;letter-spacing:0px;word-spacing:0px;writing-mode:lr-tb;text-anchor:start;fill:#000000;fill-opacity:1;stroke:none;stroke-width:0.26458332"
           x="203.85472"
           y="-3.1980536"
           id="text4981"
           transform="rotate(126.65426)"><tspan
             sodipodi:role="line"
             id="tspan4979"
             x="203.85472"
             y="-3.1980536"
             style="stroke-width:0.26458332">FOLD CLOTHES</tspan></text>
        <text
           xml:space="preserve"
           style="font-style:normal;font-variant:normal;font-weight:bold;font-stretch:normal;font-size:4.81681633px;line-height:1.25;font-family:sans-serif;-inkscape-font-specification:'sans-serif Bold';font-variant-ligatures:normal;font-variant-caps:normal;font-variant-numeric:normal;text-align:start;letter-spacing:0px;word-spacing:0px;writing-mode:lr-tb;text-anchor:start;fill:#000000;fill-opacity:1;stroke:none;stroke-width:0.24084079"
           x="60.00185"
           y="-172.5009"
           id="text4985"
           transform="matrix(-0.90792558,-0.3908688,0.38194582,-0.93698131,0,0)"><tspan
             sodipodi:role="line"
             id="tspan4983"
             x="60.00185"
             y="-172.5009"
             style="font-size:4.81681633px;stroke-width:0.24084079">HELP WITH DINNER</tspan></text>
        <text
           xml:space="preserve"
           style="font-style:normal;font-variant:normal;font-weight:bold;font-stretch:normal;font-size:5.82083321px;line-height:1.25;font-family:sans-serif;-inkscape-font-specification:'sans-serif Bold';font-variant-ligatures:normal;font-variant-caps:normal;font-variant-numeric:normal;text-align:start;letter-spacing:0px;word-spacing:0px;writing-mode:lr-tb;text-anchor:start;fill:#000000;fill-opacity:1;stroke:none;stroke-width:0.26458332"
           x="25.540384"
           y="-177.03024"
           id="text4989"
           transform="rotate(-142.76234)"><tspan
             sodipodi:role="line"
             id="tspan4987"
             x="25.540384"
             y="-177.03024"
             style="stroke-width:0.26458332">YARD WORK</tspan></text>
        <text
           xml:space="preserve"
           style="font-style:normal;font-variant:normal;font-weight:bold;font-stretch:normal;font-size:5.82083321px;line-height:1.25;font-family:sans-serif;-inkscape-font-specification:'sans-serif Bold';font-variant-ligatures:normal;font-variant-caps:normal;font-variant-numeric:normal;text-align:start;letter-spacing:0px;word-spacing:0px;writing-mode:lr-tb;text-anchor:start;fill:#000000;fill-opacity:1;stroke:none;stroke-width:0.26458332"
           x="-111.12703"
           y="-120.10585"
           id="text4993"
           transform="rotate(-97.931942)"><tspan
             sodipodi:role="line"
             id="tspan4991"
             x="-111.12703"
             y="-120.10585"
             style="stroke-width:0.26458332">CLEAN KITCHEN</tspan></text>
        <text
           xml:space="preserve"
           style="font-style:normal;font-variant:normal;font-weight:bold;font-stretch:normal;font-size:4.76249981px;line-height:1.25;font-family:sans-serif;-inkscape-font-specification:'sans-serif Bold';font-variant-ligatures:normal;font-variant-caps:normal;font-variant-numeric:normal;text-align:start;letter-spacing:0px;word-spacing:0px;writing-mode:lr-tb;text-anchor:start;fill:#000000;fill-opacity:1;stroke:none;stroke-width:0.26458332"
           x="-34.652779"
           y="-169.9493"
           id="text4997"
           transform="rotate(-128.53103)"><tspan
             sodipodi:role="line"
             id="tspan4995"
             x="-34.652779"
             y="-169.9493"
             style="font-size:4.76249981px;stroke-width:0.26458332">CLEAN FAMILY ROOM</tspan></text>
        <text
           transform="rotate(-113.60222)"
           id="text5001"
           y="-150.88579"
           x="-73.556923"
           style="font-style:normal;font-variant:normal;font-weight:bold;font-stretch:normal;font-size:5.29166651px;line-height:1.25;font-family:sans-serif;-inkscape-font-specification:'sans-serif Bold';font-variant-ligatures:normal;font-variant-caps:normal;font-variant-numeric:normal;text-align:start;letter-spacing:0px;word-spacing:0px;writing-mode:lr-tb;text-anchor:start;fill:#000000;fill-opacity:1;stroke:none;stroke-width:0.26458332"
           xml:space="preserve"><tspan
             style="font-size:5.29166651px;stroke-width:0.26458332"
             y="-150.88579"
             x="-73.556923"
             id="tspan4999"
             sodipodi:role="line">PARENT'S CHOICE</tspan></text>
        <text
           xml:space="preserve"
           style="font-style:normal;font-variant:normal;font-weight:bold;font-stretch:normal;font-size:4.64777374px;line-height:1.25;font-family:sans-serif;-inkscape-font-specification:'sans-serif Bold';font-variant-ligatures:normal;font-variant-caps:normal;font-variant-numeric:normal;text-align:start;letter-spacing:0px;word-spacing:0px;writing-mode:lr-tb;text-anchor:start;fill:#000000;fill-opacity:1;stroke:none;stroke-width:0.23238868"
           x="-154.90501"
           y="-70.851021"
           id="text5005"
           transform="matrix(0.11658719,-0.87225486,1.1322644,0.10616001,0,0)"><tspan
             sodipodi:role="line"
             id="tspan5003"
             x="-154.90501"
             y="-70.851021"
             style="font-size:4.64777374px;stroke-width:0.23238868">DUST PICTURE FRAMES</tspan></text>
        <text
           xml:space="preserve"
           style="font-style:normal;font-variant:normal;font-weight:bold;font-stretch:normal;font-size:4.57510281px;line-height:1.25;font-family:sans-serif;-inkscape-font-specification:'sans-serif Bold';font-variant-ligatures:normal;font-variant-caps:normal;font-variant-numeric:normal;text-align:start;letter-spacing:0px;word-spacing:0px;writing-mode:lr-tb;text-anchor:start;fill:#000000;fill-opacity:1;stroke:none;stroke-width:0.22875513"
           x="-161.42978"
           y="-34.909218"
           id="text5009"
           transform="matrix(0.37897164,-0.89935798,0.95576957,0.37053171,0,0)"><tspan
             sodipodi:role="line"
             id="tspan5007"
             x="-161.42978"
             y="-34.909218"
             style="font-size:4.57510281px;stroke-width:0.22875513">PUT AWAY GROCERIES</tspan></text>
        <text
           xml:space="preserve"
           style="font-style:normal;font-variant:normal;font-weight:bold;font-stretch:normal;font-size:4.41244173px;line-height:1.25;font-family:sans-serif;-inkscape-font-specification:'sans-serif Bold';font-variant-ligatures:normal;font-variant-caps:normal;font-variant-numeric:normal;text-align:start;letter-spacing:0px;word-spacing:0px;writing-mode:lr-tb;text-anchor:start;fill:#000000;fill-opacity:1;stroke:none;stroke-width:0.24513565"
           x="-155.41531"
           y="57.238163"
           id="text5013"
           transform="matrix(0.79772218,-0.60176346,0.59805775,0.80242309,0,0)"><tspan
             sodipodi:role="line"
             id="tspan5011"
             x="-155.41531"
             y="57.238163"
             style="font-size:4.41244173px;stroke-width:0.24513565">PUT AWAY DRY DISHES</tspan></text>
        <text
           xml:space="preserve"
           style="font-style:normal;font-variant:normal;font-weight:bold;font-stretch:normal;font-size:5.82083321px;line-height:1.25;font-family:sans-serif;-inkscape-font-specification:'sans-serif Bold';font-variant-ligatures:normal;font-variant-caps:normal;font-variant-numeric:normal;text-align:start;letter-spacing:0px;word-spacing:0px;writing-mode:lr-tb;text-anchor:start;fill:#000000;fill-opacity:1;stroke:none;stroke-width:0.26458332"
           x="-151.60254"
           y="10.390705"
           id="text5017"
           transform="rotate(-52.395831)"><tspan
             sodipodi:role="line"
             id="tspan5015"
             x="-151.60254"
             y="10.390705"
             style="stroke-width:0.26458332">KID'S CHOICE</tspan></text>
      </g>
      <text
         transform="scale(0.94643446,1.0565972)"
         id="text1182"
         y="198.37721"
         x="10.153326"
         style="font-style:normal;font-variant:normal;font-weight:bold;font-stretch:normal;font-size:18.58763885px;line-height:1.25;font-family:sans-serif;-inkscape-font-specification:'sans-serif Bold';font-variant-ligatures:normal;font-variant-caps:normal;font-variant-numeric:normal;text-align:start;letter-spacing:0px;word-spacing:0px;writing-mode:lr-tb;text-anchor:start;fill:#000000;fill-opacity:1;stroke:none;stroke-width:0.33192217"
         xml:space="preserve"><tspan
           style="stroke-width:0.33192217"
           y="198.37721"
           x="10.153326"
           id="tspan1180"
           sodipodi:role="line">THE WHEEL</tspan><tspan
           id="tspan1184"
           style="stroke-width:0.33192217"
           y="221.61176"
           x="10.153326"
           sodipodi:role="line">       OF</tspan><tspan
           id="tspan1186"
           style="stroke-width:0.33192217"
           y="244.84631"
           x="10.153326"
           sodipodi:role="line">   CHORES</tspan></text>
    </g>
  </g>
</svg>
